<svg viewBox="0 0 158 160" xmlns="http://www.w3.org/2000/svg">
    <path d="M110.291 3.10449C104.543 1.50447 98.6396 0.532567 92.6835 0.205709C73.3004 -0.993741 54.5567 3.03589 37.73 12.7211C23.9592 20.6392 13.0229 34.2827 6.70417 48.8459C3.23606 56.8291 1.1017 65.3311 0.386803 74.0106C-0.252648 81.2216 -0.323698 88.5772 1.94855 95.5729C4.17597 102.175 7.17897 108.488 10.8941 114.378C13.1657 117.983 15.509 121.447 17.9937 124.91C18.5971 125.723 19.218 126.554 19.839 127.384C20.4604 128.215 21.0818 129.046 21.6856 129.859C22.0401 130.353 22.501 130.777 22.9621 131.201C23.424 131.625 23.8861 132.05 24.2413 132.546C24.5124 132.928 26.3191 134.432 28.6942 136.272C27.0654 142.061 23.7294 149.789 17.0135 154.534C5.19265 162.885 29.8709 157.512 35.9624 155.229C38.0142 154.46 38.8596 154.259 39.6634 153.95C41.0124 153.432 42.2439 152.608 48.8643 148.278C49.43 148.612 50.0008 148.933 50.582 149.23C53.2698 150.572 56.045 151.729 58.8887 152.694C64.6747 154.546 70.6153 155.871 76.6384 156.652C83.6676 157.642 90.7665 158.208 97.7957 157.501C101.936 157.103 106.013 156.201 109.936 154.814C112.504 153.914 114.722 152.634 116.973 151.335C118.083 150.694 119.201 150.048 120.373 149.441C122.636 148.288 124.549 146.591 126.457 144.897C127.123 144.306 127.788 143.716 128.467 143.149C131.556 140.662 134.387 137.867 136.916 134.808C140.252 130.567 142.737 125.759 145.151 120.952C149.198 112.683 152.961 104.269 155.375 95.4316C159.705 79.6669 158.427 61.7811 153.387 46.3696C150.278 37.0834 145.408 28.4891 139.045 21.0609C131.591 12.1533 121.437 6.21518 110.291 3.10449Z" />
</svg>
