<?xml version="1.0" encoding="UTF-8"?>
<svg id="Layer_1" data-name="Layer 1" xmlns="http://www.w3.org/2000/svg" viewBox="0 0 317.81 1177.84">
  <defs>
    <style>
      .cls-1 {
        stroke: #231f20;
        stroke-miterlimit: 10;
      }
    </style>
  </defs>
  <g>
    <path class="cls-1" d="m316.56,1168.22c.28-.62.31-.04.63-.68,0-.19.11-1.12.12-1.5,0-.37.01-2.13,0-3.75-.06-6.18-.01-10.59-.12-16.78-.09-5.15-.03-10.31-.03-15.48,0-3.11.09-9.95.03-13.06-.08-3.69-.06-10.86-.09-14.56h-.46c0,1.03,0,7.93.01,8.96.03,4.1.09,11.96.1,16.06,0,5.3-.04,10.59-.04,15.89,0,2.24.06,4.48.09,6.72,0,.49,0,.97.01,1.45,0,.84,0,1.68,0,2.52.02,4.37.05,6.64.07,11.01,0,.5-.01,1.01-.02,1.63-.15.02-.41-.38-.54-.37-.27.01-.22,1.1-.25,1.98-.02.59-.03,1.18-.05,1.78-.02.7-.1.95-.31,1-.17.04-.34.02-.51.04-.36.02-.42.2-.49,1.36-.04.64-.08,2.54-.12,3.27-.13.07-.26.19-.38.18-.62-.04-1.24-.13-1.86-.16-1.48-.07-1.66-.14-3.14-.15-1.1,0-2.21.13-3.31.11-1.18-.03-1.7-.22-2.88-.26-1.82-.05-3-.05-4.82-.04-.81,0-2.11.08-2.92.17-3.73.41-1.52.16-5.25.27v1.5c2.88-.11.74-.04,1.57-.14.89-.1,2.92-.34,3.81-.44,1.05-.11,2.6-.15,3.65-.21.64-.04,1.27-.1,1.91-.09,1.01.04,1.38.14,2.39.19.86.04,1.07.04,1.93.1.86.05,1.72.19,2.57.22.64.03.63-.1,1.26-.09,2.02.03,3.39-.05,5.41.36.07.01.15.02.22,0,.23-.03.32-.32.35-1.08.01-.34,0-.71.02-1.05.03-.58,0-2.53.17-3.01.36-.07.72-.13,1.08-.2.18-1.21.04-2.49.2-3.66Z"/>
    <rect class="cls-1" x="27.81" y="1175.82" width="262.19" height="1.5"/>
    <path class="cls-1" d="m1.25,1168.22c-.29-.62-.31-.04-.63-.68,0-.19-.11-1.12-.12-1.5,0-.37-.01-2.13,0-3.75.06-6.18.01-10.59.12-16.78.09-5.15.03-10.31.03-15.48,0-3.11-.09-9.95-.03-13.06.07-3.69.06-10.86.09-14.56h.46c0,1.03,0,7.93-.01,8.96-.03,4.1-.09,11.96-.09,16.06,0,5.3.04,10.59.04,15.89,0,2.24-.06,4.48-.09,6.72,0,.49-.01.97-.01,1.45,0,.84,0,1.68,0,2.52-.02,4.37-.04,6.64-.06,11.01,0,.5.01,1.01.02,1.63.15.02.41-.38.54-.37.26.01.22,1.1.25,1.98.02.59.03,1.18.05,1.78.02.7.1.95.31,1,.17.04.34.02.52.04.36.02.42.2.49,1.36.04.64.08,2.54.12,3.27.13.07.26.19.38.18.62-.04,1.24-.13,1.86-.16,1.48-.07,1.66-.14,3.14-.15,1.1,0,2.21.13,3.31.11,1.18-.03,1.7-.22,2.88-.26,1.82-.05,3-.05,4.82-.04.81,0,2.11.08,2.92.17,3.73.41,1.52.16,5.25.27v1.5c-2.88-.11-.74-.04-1.58-.14-.89-.1-2.92-.34-3.81-.44-1.05-.11-2.6-.15-3.65-.21-.64-.04-1.27-.1-1.91-.09-1.01.04-1.38.14-2.39.19-.86.04-1.07.04-1.93.1-.86.05-1.72.19-2.57.22-.64.03-.63-.1-1.26-.09-2.02.03-3.39-.05-5.41.36-.07.01-.15.02-.22,0-.23-.03-.32-.32-.35-1.08-.01-.34,0-.71-.02-1.05-.04-.58,0-2.53-.17-3.01-.36-.07-.72-.13-1.08-.2-.18-1.21-.04-2.49-.2-3.66Z"/>
    <rect class="cls-1" x="316.63" y="75.43" width=".46" height="1026.99"/>
    <rect class="cls-1" x=".73" y="75.43" width=".46" height="1026.99"/>
    <path class="cls-1" d="m316.56,9.62c.28.62.31.04.63.68,0,.19.11,1.12.12,1.5,0,.37.01,2.13,0,3.75-.06,6.18-.01,10.59-.12,16.78-.09,5.15-.03,10.32-.03,15.48,0,3.1.09,9.94.03,13.06-.08,3.69-.06,10.86-.09,14.56h-.46c0-1.03,0-7.93.01-8.96.03-4.11.09-11.96.1-16.06,0-5.29-.04-10.59-.04-15.89,0-2.24.06-4.48.09-6.72,0-.49,0-.97.01-1.46,0-.84,0-1.68,0-2.51.02-4.38.05-6.64.07-11.01,0-.5-.01-1.01-.02-1.64-.15-.02-.41.39-.54.38-.27-.02-.22-1.1-.25-1.98-.02-.59-.03-1.18-.05-1.77-.02-.69-.1-.95-.31-1-.17-.04-.34-.02-.51-.04-.36-.03-.42-.2-.49-1.36-.04-.63-.08-2.53-.12-3.27-.13-.06-.26-.18-.38-.18-.62.04-1.24.13-1.86.15-1.48.07-1.66.14-3.14.16-1.1,0-2.21-.14-3.31-.11-1.18.03-1.7.22-2.88.26-1.82.06-3,.06-4.82.04-.81,0-2.11-.08-2.92-.17-3.73-.41-1.52-.16-5.25-.27V.52c2.88.11.74.05,1.57.14.89.1,2.92.34,3.81.44,1.05.12,2.6.15,3.65.21.64.04,1.27.11,1.91.09,1.01-.03,1.38-.14,2.39-.19.86-.05,1.07-.04,1.93-.09.86-.05,1.72-.19,2.57-.22.64-.03.63.1,1.26.09,2.02-.03,3.39.06,5.41-.36.07-.01.15-.02.22-.01.23.04.32.33.35,1.08.01.35,0,.71.02,1.05.03.59,0,2.53.17,3.01.36.07.72.13,1.08.2.18,1.21.04,2.49.2,3.67Z"/>
    <rect class="cls-1" x="27.81" y=".52" width="262.19" height="1.5"/>
    <path class="cls-1" d="m1.25,9.62c-.29.62-.31.04-.63.68,0,.19-.11,1.12-.12,1.5,0,.37-.01,2.13,0,3.75.06,6.18.01,10.59.12,16.78.09,5.15.03,10.32.03,15.48,0,3.1-.09,9.94-.03,13.06.07,3.69.06,10.86.09,14.56h.46c0-1.03,0-7.93-.01-8.96-.03-4.11-.09-11.96-.09-16.06,0-5.29.04-10.59.04-15.89,0-2.24-.06-4.48-.09-6.72,0-.49-.01-.97-.01-1.46,0-.84,0-1.68,0-2.51-.02-4.38-.04-6.64-.06-11.01,0-.5.01-1.01.02-1.64.15-.02.41.39.54.38.26-.02.22-1.1.25-1.98.02-.59.03-1.18.05-1.77.02-.69.1-.95.31-1,.17-.04.34-.02.52-.04.36-.03.42-.2.49-1.36.04-.63.08-2.53.12-3.27.13-.06.26-.18.38-.18.62.04,1.24.13,1.86.15,1.48.07,1.66.14,3.14.16,1.1,0,2.21-.14,3.31-.11,1.18.03,1.7.22,2.88.26,1.82.06,3,.06,4.82.04.81,0,2.11-.08,2.92-.17,3.73-.41,1.52-.16,5.25-.27V.52c-2.88.11-.74.05-1.58.14-.89.1-2.92.34-3.81.44-1.05.12-2.6.15-3.65.21-.64.04-1.27.11-1.91.09-1.01-.03-1.38-.14-2.39-.19-.86-.05-1.07-.04-1.93-.09-.86-.05-1.72-.19-2.57-.22-.64-.03-.63.1-1.26.09-2.02-.03-3.39.06-5.41-.36-.07-.01-.15-.02-.22-.01-.23.04-.32.33-.35,1.08-.01.35,0,.71-.02,1.05-.04.59,0,2.53-.17,3.01-.36.07-.72.13-1.08.2-.18,1.21-.04,2.49-.2,3.67Z"/>
  </g>
  <g>
    <path class="cls-1" d="m314.09,1162.7c.28-.62.31-.04.62-.67,0-.19.11-1.11.12-1.48,0-.37.01-2.11,0-3.71-.06-6.12-.01-10.49-.12-16.61-.09-5.09-.03-10.21-.03-15.32,0-3.08.09-9.85.03-12.93-.07-3.65-.06-10.75-.09-14.42h-.45c0,1.02,0,7.85.01,8.87.03,4.06.09,11.84.09,15.9,0,5.24-.04,10.49-.04,15.73,0,2.22.06,4.43.09,6.65,0,.48,0,.96.01,1.44,0,.83,0,1.66,0,2.49.02,4.33.04,6.57.06,10.9,0,.5-.01,1-.02,1.62-.15.02-.4-.38-.53-.37-.26.01-.22,1.09-.25,1.96-.02.59-.03,1.17-.05,1.76-.02.69-.09.94-.3.99-.17.04-.34.02-.51.04-.35.02-.41.2-.48,1.34-.04.63-.08,2.51-.12,3.24-.13.07-.25.19-.38.18-.61-.04-1.22-.13-1.83-.16-1.45-.07-1.63-.14-3.09-.15-1.08,0-2.17.13-3.25.11-1.16-.03-1.67-.22-2.83-.26-1.79-.05-2.95-.05-4.74-.04-.8,0-2.07.08-2.87.17-3.67.41-1.49.16-5.16.27v1.48c2.83-.11.73-.04,1.55-.14.87-.1,2.87-.33,3.74-.44,1.04-.11,2.55-.15,3.59-.21.63-.04,1.25-.1,1.88-.09,1,.04,1.35.14,2.35.19.84.04,1.05.04,1.89.1.84.05,1.69.19,2.53.22.63.03.62-.1,1.24-.09,1.98.03,3.33-.05,5.31.36.07.01.15.02.22,0,.22-.03.32-.32.34-1.07.01-.34,0-.7.02-1.04.03-.58,0-2.51.17-2.98.35-.07.71-.13,1.06-.2.17-1.2.04-2.46.2-3.63Z"/>
    <rect class="cls-1" x="30.33" y="1170.22" width="257.66" height="1.48"/>
    <path class="cls-1" d="m4.23,1162.7c-.28-.62-.31-.04-.62-.67,0-.19-.11-1.11-.11-1.48,0-.37-.01-2.11,0-3.71.06-6.12.01-10.49.12-16.61.09-5.09.03-10.21.03-15.32,0-3.08-.09-9.85-.03-12.93.07-3.65.06-10.75.09-14.42h.45c0,1.02,0,7.85-.01,8.87-.03,4.06-.09,11.84-.09,15.9,0,5.24.04,10.49.04,15.73,0,2.22-.06,4.43-.09,6.65,0,.48-.01.96-.01,1.44,0,.83,0,1.66,0,2.49-.02,4.33-.04,6.57-.06,10.9,0,.5.01,1,.02,1.62.15.02.4-.38.53-.37.26.01.22,1.09.25,1.96.02.59.03,1.17.05,1.76.02.69.09.94.3.99.17.04.34.02.51.04.35.02.41.2.48,1.34.04.63.08,2.51.12,3.24.13.07.25.19.37.18.61-.04,1.22-.13,1.83-.16,1.45-.07,1.63-.14,3.09-.15,1.09,0,2.17.13,3.25.11,1.16-.03,1.67-.22,2.83-.26,1.79-.05,2.95-.05,4.74-.04.8,0,2.07.08,2.87.17,3.67.41,1.49.16,5.16.27v1.48c-2.83-.11-.73-.04-1.55-.14-.87-.1-2.87-.33-3.74-.44-1.04-.11-2.55-.15-3.59-.21-.63-.04-1.25-.1-1.88-.09-1,.04-1.35.14-2.35.19-.84.04-1.05.04-1.89.1-.84.05-1.69.19-2.53.22-.63.03-.61-.1-1.24-.09-1.98.03-3.33-.05-5.31.36-.07.01-.14.02-.22,0-.22-.03-.32-.32-.34-1.07-.01-.34,0-.7-.02-1.04-.04-.58,0-2.51-.17-2.98-.35-.07-.71-.13-1.06-.2-.17-1.2-.04-2.46-.2-3.63Z"/>
    <rect class="cls-1" x="314.16" y="80.85" width=".45" height="1016.7"/>
    <rect class="cls-1" x="3.71" y="80.85" width=".45" height="1016.7"/>
    <path class="cls-1" d="m314.09,15.7c.28.61.31.04.62.67,0,.19.11,1.11.12,1.48,0,.37.01,2.11,0,3.71-.06,6.12-.01,10.49-.12,16.61-.09,5.09-.03,10.22-.03,15.33,0,3.07.09,9.84.03,12.93-.07,3.65-.06,10.76-.09,14.42h-.45c0-1.02,0-7.85.01-8.87.03-4.06.09-11.84.09-15.9,0-5.24-.04-10.48-.04-15.73,0-2.22.06-4.43.09-6.65,0-.48,0-.96.01-1.44,0-.83,0-1.66,0-2.49.02-4.33.04-6.57.06-10.9,0-.5-.01-1-.02-1.62-.15-.02-.4.38-.53.37-.26-.02-.22-1.09-.25-1.96-.02-.58-.03-1.17-.05-1.76-.02-.69-.09-.94-.3-.99-.17-.04-.34-.02-.51-.04-.35-.03-.41-.2-.48-1.35-.04-.63-.08-2.51-.12-3.24-.13-.06-.25-.18-.38-.17-.61.04-1.22.12-1.83.15-1.45.07-1.63.14-3.09.15-1.08,0-2.17-.14-3.25-.11-1.16.03-1.67.22-2.83.26-1.79.05-2.95.05-4.74.04-.8,0-2.07-.08-2.87-.17-3.67-.41-1.49-.16-5.16-.27v-1.48c2.83.11.73.05,1.55.14.87.1,2.87.34,3.74.44,1.04.12,2.55.15,3.59.21.63.04,1.25.11,1.88.09,1-.03,1.35-.14,2.35-.19.84-.05,1.05-.04,1.89-.09.84-.05,1.69-.19,2.53-.22.63-.03.62.1,1.24.09,1.98-.03,3.33.05,5.31-.35.07-.01.15-.02.22-.01.22.04.32.32.34,1.07.01.34,0,.7.02,1.04.03.58,0,2.51.17,2.98.35.07.71.13,1.06.2.17,1.2.04,2.46.2,3.63Z"/>
    <rect class="cls-1" x="30.33" y="6.69" width="257.66" height="1.48"/>
    <path class="cls-1" d="m4.23,15.7c-.28.61-.31.04-.62.67,0,.19-.11,1.11-.11,1.48,0,.37-.01,2.11,0,3.71.06,6.12.01,10.49.12,16.61.09,5.09.03,10.22.03,15.33,0,3.07-.09,9.84-.03,12.93.07,3.65.06,10.76.09,14.42h.45c0-1.02,0-7.85-.01-8.87-.03-4.06-.09-11.84-.09-15.9,0-5.24.04-10.48.04-15.73,0-2.22-.06-4.43-.09-6.65,0-.48-.01-.96-.01-1.44,0-.83,0-1.66,0-2.49-.02-4.33-.04-6.57-.06-10.9,0-.5.01-1,.02-1.62.15-.02.4.38.53.37.26-.02.22-1.09.25-1.96.02-.58.03-1.17.05-1.76.02-.69.09-.94.3-.99.17-.04.34-.02.51-.04.35-.03.41-.2.48-1.35.04-.63.08-2.51.12-3.24.13-.06.25-.18.37-.17.61.04,1.22.12,1.83.15,1.45.07,1.63.14,3.09.15,1.09,0,2.17-.14,3.25-.11,1.16.03,1.67.22,2.83.26,1.79.05,2.95.05,4.74.04.8,0,2.07-.08,2.87-.17,3.67-.41,1.49-.16,5.16-.27v-1.48c-2.83.11-.73.05-1.55.14-.87.1-2.87.34-3.74.44-1.04.12-2.55.15-3.59.21-.63.04-1.25.11-1.88.09-1-.03-1.35-.14-2.35-.19-.84-.05-1.05-.04-1.89-.09-.84-.05-1.69-.19-2.53-.22-.63-.03-.61.1-1.24.09-1.98-.03-3.33.05-5.31-.35-.07-.01-.14-.02-.22-.01-.22.04-.32.32-.34,1.07-.01.34,0,.7-.02,1.04-.04.58,0,2.51-.17,2.98-.35.07-.71.13-1.06.2-.17,1.2-.04,2.46-.2,3.63Z"/>
  </g>
</svg>