<?xml version="1.0" encoding="UTF-8"?>
<svg id="Layer_1" data-name="Layer 1" xmlns="http://www.w3.org/2000/svg" viewBox="0 0 379.31 329.74">
  <defs>
    <style>
      .cls-1 {
        stroke: #231f20;
        stroke-miterlimit: 10;
      }
    </style>
  </defs>
  <g>
    <path class="cls-1" d="m377.91,326.69c.34-.17.37-.01.75-.19,0-.05.14-.31.14-.42,0-.1.01-.59,0-1.05-.07-1.73-.02-2.96-.14-4.69-.11-1.44-.04-2.88-.04-4.32,0-.87.11-2.78.03-3.65-.09-1.03-.08-3.03-.11-4.07h-.54c0,.29,0,2.22.02,2.5.04,1.15.11,3.34.11,4.49,0,1.48-.05,2.96-.05,4.44,0,.63.07,1.25.11,1.88,0,.14.01.27.01.41,0,.23,0,.47,0,.7.02,1.22.05,1.85.08,3.08,0,.14-.01.28-.02.46-.18,0-.49-.11-.64-.1-.32,0-.26.31-.3.55-.03.17-.04.33-.06.5-.02.19-.11.27-.37.28-.2.01-.41,0-.61.01-.43,0-.5.06-.59.38-.05.18-.09.71-.15.91-.16.02-.31.05-.46.05-.74-.01-1.48-.04-2.23-.04-1.77-.02-1.98-.04-3.75-.04-1.32,0-2.64.04-3.95.03-1.41,0-2.03-.06-3.44-.07-2.18-.01-3.58-.01-5.76-.01-.97,0-2.52.02-3.48.05-4.46.12-1.82.04-6.27.08v.42c3.44-.03.89-.01,1.88-.04,1.06-.03,3.48-.09,4.55-.12,1.26-.03,3.1-.04,4.36-.06.76-.01,1.52-.03,2.28-.03,1.21.01,1.64.04,2.86.05,1.02.01,1.27.01,2.3.03,1.02.01,2.05.05,3.07.06.76,0,.75-.03,1.51-.03,2.41,0,4.05-.01,6.46.1.09,0,.18,0,.26,0,.27,0,.39-.09.42-.3.01-.1,0-.2.02-.29.04-.16,0-.71.21-.84.43-.02.86-.04,1.29-.06.21-.34.05-.69.24-1.02Z"/>
    <rect class="cls-1" x="33.11" y="328.81" width="313.08" height=".42"/>
    <path class="cls-1" d="m1.4,326.69c-.34-.17-.37-.01-.75-.19,0-.05-.14-.31-.14-.42,0-.1-.01-.59,0-1.05.07-1.73.02-2.96.15-4.69.11-1.44.04-2.88.04-4.32,0-.87-.11-2.78-.03-3.65.09-1.03.08-3.03.11-4.07h.54c0,.29,0,2.22-.02,2.5-.04,1.15-.11,3.34-.11,4.49,0,1.48.05,2.96.05,4.44,0,.63-.07,1.25-.11,1.88,0,.14-.01.27-.01.41,0,.23,0,.47,0,.7-.03,1.22-.05,1.85-.08,3.08,0,.14.01.28.02.46.18,0,.49-.11.64-.1.32,0,.26.31.3.55.03.17.04.33.06.5.02.19.11.27.37.28.2.01.41,0,.62.01.43,0,.5.06.59.38.05.18.09.71.15.91.16.02.31.05.46.05.74-.01,1.48-.04,2.23-.04,1.77-.02,1.98-.04,3.75-.04,1.32,0,2.64.04,3.95.03,1.41,0,2.03-.06,3.44-.07,2.18-.01,3.58-.01,5.76-.01.97,0,2.52.02,3.48.05,4.46.12,1.82.04,6.27.08v.42c-3.44-.03-.89-.01-1.88-.04-1.06-.03-3.48-.09-4.55-.12-1.26-.03-3.1-.04-4.36-.06-.76-.01-1.52-.03-2.28-.03-1.21.01-1.65.04-2.86.05-1.03.01-1.27.01-2.3.03-1.03.01-2.05.05-3.07.06-.76,0-.75-.03-1.51-.03-2.41,0-4.05-.01-6.46.1-.09,0-.18,0-.26,0-.27,0-.39-.09-.42-.3-.01-.1,0-.2-.02-.29-.04-.16,0-.71-.21-.84-.43-.02-.86-.04-1.29-.06-.21-.34-.05-.69-.24-1.02Z"/>
    <rect class="cls-1" x="377.99" y="21.43" width=".54" height="286.88"/>
    <rect class="cls-1" x=".77" y="21.43" width=".54" height="286.88"/>
    <path class="cls-1" d="m377.91,3.05c.34.17.37.01.75.19,0,.05.14.31.14.42,0,.1.01.59,0,1.05-.07,1.73-.02,2.96-.14,4.69-.11,1.44-.04,2.88-.04,4.32,0,.87.11,2.78.03,3.65-.09,1.03-.08,3.03-.11,4.07h-.54c0-.29,0-2.22.02-2.5.04-1.15.11-3.34.11-4.49,0-1.48-.05-2.96-.05-4.44,0-.63.07-1.25.11-1.88,0-.14.01-.27.01-.41,0-.23,0-.47,0-.7.02-1.22.05-1.85.08-3.08,0-.14-.01-.28-.02-.46-.18,0-.49.11-.64.11-.32,0-.26-.31-.3-.55-.03-.16-.04-.33-.06-.5-.02-.19-.11-.27-.37-.28-.2-.01-.41,0-.61-.01-.43,0-.5-.06-.59-.38-.05-.18-.09-.71-.15-.91-.16-.02-.31-.05-.46-.05-.74.01-1.48.04-2.23.04-1.77.02-1.98.04-3.75.04-1.32,0-2.64-.04-3.95-.03-1.41,0-2.03.06-3.44.07-2.18.02-3.58.02-5.76.01-.97,0-2.52-.02-3.48-.05-4.46-.12-1.82-.04-6.27-.08v-.42c3.44.03.89.01,1.88.04,1.06.03,3.48.1,4.55.12,1.26.03,3.1.04,4.36.06.76.01,1.52.03,2.28.02,1.21,0,1.64-.04,2.86-.05,1.02-.01,1.27-.01,2.3-.03,1.02-.01,2.05-.05,3.07-.06.76,0,.75.03,1.51.02,2.41,0,4.05.02,6.46-.1.09,0,.18,0,.26,0,.27.01.39.09.42.3.01.1,0,.2.02.29.04.16,0,.71.21.84.43.02.86.04,1.29.06.21.34.05.69.24,1.03Z"/>
    <rect class="cls-1" x="33.11" y=".5" width="313.08" height=".42"/>
    <path class="cls-1" d="m1.4,3.05c-.34.17-.37.01-.75.19,0,.05-.14.31-.14.42,0,.1-.01.59,0,1.05.07,1.73.02,2.96.15,4.69.11,1.44.04,2.88.04,4.32,0,.87-.11,2.78-.03,3.65.09,1.03.08,3.03.11,4.07h.54c0-.29,0-2.22-.02-2.5-.04-1.15-.11-3.34-.11-4.49,0-1.48.05-2.96.05-4.44,0-.63-.07-1.25-.11-1.88,0-.14-.01-.27-.01-.41,0-.23,0-.47,0-.7-.03-1.22-.05-1.85-.08-3.08,0-.14.01-.28.02-.46.18,0,.49.11.64.11.32,0,.26-.31.3-.55.03-.16.04-.33.06-.5.02-.19.11-.27.37-.28.2-.01.41,0,.62-.01.43,0,.5-.06.59-.38.05-.18.09-.71.15-.91.16-.02.31-.05.46-.05.74.01,1.48.04,2.23.04,1.77.02,1.98.04,3.75.04,1.32,0,2.64-.04,3.95-.03,1.41,0,2.03.06,3.44.07,2.18.02,3.58.02,5.76.01.97,0,2.52-.02,3.48-.05,4.46-.12,1.82-.04,6.27-.08v-.42c-3.44.03-.89.01-1.88.04-1.06.03-3.48.1-4.55.12-1.26.03-3.1.04-4.36.06-.76.01-1.52.03-2.28.02-1.21,0-1.65-.04-2.86-.05-1.03-.01-1.27-.01-2.3-.03-1.03-.01-2.05-.05-3.07-.06-.76,0-.75.03-1.51.02-2.41,0-4.05.02-6.46-.1-.09,0-.18,0-.26,0-.27.01-.39.09-.42.3-.01.1,0,.2-.02.29-.04.16,0,.71-.21.84-.43.02-.86.04-1.29.06-.21.34-.05.69-.24,1.03Z"/>
  </g>
  <g>
    <path class="cls-1" d="m372.03,319.04c.33-.17.36-.01.72-.18,0-.05.13-.3.14-.4,0-.1.01-.57,0-1-.07-1.65-.02-2.83-.14-4.48-.1-1.37-.04-2.75-.04-4.13,0-.83.1-2.65.03-3.49-.09-.98-.07-2.9-.1-3.89h-.52c0,.27,0,2.12.02,2.39.04,1.1.1,3.19.11,4.29,0,1.41-.05,2.83-.05,4.24,0,.6.07,1.2.11,1.79,0,.13.01.26.01.39,0,.22,0,.45,0,.67.02,1.17.05,1.77.08,2.94,0,.13-.01.27-.02.44-.18,0-.47-.1-.62-.1-.31,0-.25.29-.29.53-.03.16-.04.32-.06.47-.02.19-.11.25-.36.27-.2.01-.4,0-.59.01-.41,0-.48.05-.57.36-.04.17-.09.68-.14.87-.15.02-.3.05-.44.05-.72,0-1.43-.03-2.15-.04-1.7-.02-1.91-.04-3.62-.04-1.27,0-2.54.04-3.81.03-1.35,0-1.96-.06-3.32-.07-2.1-.01-3.45-.01-5.55,0-.93,0-2.43.02-3.36.05-4.3.11-1.75.04-6.05.07v.4c3.32-.03.85-.01,1.81-.04,1.02-.03,3.36-.09,4.38-.12,1.21-.03,2.99-.04,4.21-.06.73,0,1.47-.03,2.2-.02,1.17.01,1.59.04,2.75.05.99.01,1.23.01,2.22.03.99.01,1.98.05,2.96.06.73,0,.72-.03,1.45-.02,2.32,0,3.9-.01,6.23.1.08,0,.17,0,.25,0,.26,0,.37-.09.4-.29.01-.09,0-.19.02-.28.04-.16,0-.68.2-.8.41-.02.83-.04,1.25-.05.2-.32.04-.66.24-.98Z"/>
    <rect class="cls-1" x="39.58" y="321.07" width="301.87" height=".4"/>
    <path class="cls-1" d="m9,319.04c-.33-.17-.36-.01-.72-.18,0-.05-.13-.3-.13-.4,0-.1-.01-.57,0-1,.07-1.65.02-2.83.14-4.48.1-1.37.04-2.75.04-4.13,0-.83-.1-2.65-.03-3.49.09-.98.07-2.9.1-3.89h.52c0,.27,0,2.12-.02,2.39-.04,1.1-.1,3.19-.11,4.29,0,1.41.05,2.83.05,4.24,0,.6-.07,1.2-.11,1.79,0,.13-.01.26-.01.39,0,.22,0,.45,0,.67-.02,1.17-.05,1.77-.07,2.94,0,.13.01.27.02.44.18,0,.47-.1.62-.1.3,0,.25.29.29.53.02.16.04.32.06.47.02.19.11.25.36.27.2.01.4,0,.59.01.41,0,.48.05.57.36.04.17.09.68.14.87.15.02.3.05.44.05.72,0,1.43-.03,2.15-.04,1.7-.02,1.91-.04,3.62-.04,1.27,0,2.54.04,3.81.03,1.35,0,1.96-.06,3.32-.07,2.1-.01,3.45-.01,5.55,0,.93,0,2.43.02,3.36.05,4.3.11,1.75.04,6.05.07v.4c-3.32-.03-.86-.01-1.81-.04-1.02-.03-3.36-.09-4.38-.12-1.21-.03-2.99-.04-4.2-.06-.73,0-1.47-.03-2.2-.02-1.17.01-1.59.04-2.75.05-.99.01-1.23.01-2.22.03-.99.01-1.98.05-2.96.06-.73,0-.72-.03-1.45-.02-2.33,0-3.9-.01-6.23.1-.08,0-.17,0-.25,0-.26,0-.37-.09-.4-.29-.01-.09,0-.19-.02-.28-.04-.16,0-.68-.2-.8-.41-.02-.83-.04-1.25-.05-.21-.32-.04-.66-.24-.98Z"/>
    <rect class="cls-1" x="372.11" y="27.41" width=".52" height="274.06"/>
    <rect class="cls-1" x="8.4" y="27.41" width=".52" height="274.06"/>
    <path class="cls-1" d="m372.03,9.85c.33.17.36.01.72.18,0,.05.13.3.14.4,0,.1.01.57,0,1-.07,1.65-.02,2.83-.14,4.48-.1,1.37-.04,2.75-.04,4.13,0,.83.1,2.65.03,3.48-.09.98-.07,2.9-.1,3.89h-.52c0-.27,0-2.12.02-2.39.04-1.1.1-3.19.11-4.29,0-1.41-.05-2.83-.05-4.24,0-.6.07-1.2.11-1.79,0-.13.01-.26.01-.39,0-.22,0-.45,0-.67.02-1.17.05-1.77.08-2.94,0-.13-.01-.27-.02-.44-.18,0-.47.1-.62.1-.31,0-.25-.29-.29-.53-.03-.16-.04-.32-.06-.47-.02-.19-.11-.25-.36-.27-.2,0-.4,0-.59,0-.41,0-.48-.05-.57-.36-.04-.17-.09-.68-.14-.87-.15-.02-.3-.05-.44-.05-.72,0-1.43.03-2.15.04-1.7.02-1.91.04-3.62.04-1.27,0-2.54-.04-3.81-.03-1.35,0-1.96.06-3.32.07-2.1.01-3.45.01-5.55.01-.93,0-2.43-.02-3.36-.05-4.3-.11-1.75-.04-6.05-.07v-.4c3.32.03.85.01,1.81.04,1.02.03,3.36.09,4.38.12,1.21.03,2.99.04,4.21.06.73.01,1.47.03,2.2.02,1.17,0,1.59-.04,2.75-.05.99-.01,1.23-.01,2.22-.02.99-.01,1.98-.05,2.96-.06.73,0,.72.03,1.45.02,2.32,0,3.9.01,6.23-.1.08,0,.17,0,.25,0,.26,0,.37.09.4.29.01.09,0,.19.02.28.04.16,0,.68.2.8.41.02.83.04,1.25.05.2.32.04.66.24.98Z"/>
    <rect class="cls-1" x="39.58" y="7.42" width="301.87" height=".4"/>
    <path class="cls-1" d="m9,9.85c-.33.17-.36.01-.72.18,0,.05-.13.3-.13.4,0,.1-.01.57,0,1,.07,1.65.02,2.83.14,4.48.1,1.37.04,2.75.04,4.13,0,.83-.1,2.65-.03,3.48.09.98.07,2.9.1,3.89h.52c0-.27,0-2.12-.02-2.39-.04-1.1-.1-3.19-.11-4.29,0-1.41.05-2.83.05-4.24,0-.6-.07-1.2-.11-1.79,0-.13-.01-.26-.01-.39,0-.22,0-.45,0-.67-.02-1.17-.05-1.77-.07-2.94,0-.13.01-.27.02-.44.18,0,.47.1.62.1.3,0,.25-.29.29-.53.02-.16.04-.32.06-.47.02-.19.11-.25.36-.27.2,0,.4,0,.59,0,.41,0,.48-.05.57-.36.04-.17.09-.68.14-.87.15-.02.3-.05.44-.05.72,0,1.43.03,2.15.04,1.7.02,1.91.04,3.62.04,1.27,0,2.54-.04,3.81-.03,1.35,0,1.96.06,3.32.07,2.1.01,3.45.01,5.55.01.93,0,2.43-.02,3.36-.05,4.3-.11,1.75-.04,6.05-.07v-.4c-3.32.03-.86.01-1.81.04-1.02.03-3.36.09-4.38.12-1.21.03-2.99.04-4.2.06-.73.01-1.47.03-2.2.02-1.17,0-1.59-.04-2.75-.05-.99-.01-1.23-.01-2.22-.02-.99-.01-1.98-.05-2.96-.06-.73,0-.72.03-1.45.02-2.33,0-3.9.01-6.23-.1-.08,0-.17,0-.25,0-.26,0-.37.09-.4.29-.01.09,0,.19-.02.28-.04.16,0,.68-.2.8-.41.02-.83.04-1.25.05-.21.32-.04.66-.24.98Z"/>
  </g>
</svg>