<?xml version="1.0" encoding="UTF-8"?>
<svg id="Layer_1" data-name="Layer 1" xmlns="http://www.w3.org/2000/svg" viewBox="0 0 673.84 1177.82">
  <defs>
    <style>
      .cls-1 {
        stroke: #231f20;
        stroke-miterlimit: 10;
      }
    </style>
  </defs>
  <g>
    <path class="cls-1" d="m671.74,1168.21c.6-.62.66-.04,1.33-.68,0-.19.24-1.12.25-1.5,0-.37.02-2.13,0-3.75-.13-6.18-.03-10.59-.26-16.78-.19-5.15-.07-10.31-.07-15.48,0-3.11.19-9.95.06-13.06-.16-3.69-.14-10.86-.19-14.56h-.97c0,1.03,0,7.93.03,8.96.07,4.1.19,11.96.2,16.06,0,5.3-.09,10.59-.09,15.89,0,2.24.13,4.48.2,6.72.01.49.02.97.02,1.45,0,.84,0,1.68,0,2.52.04,4.37.1,6.64.14,11.01,0,.5-.02,1.01-.04,1.63-.33.02-.87-.38-1.14-.37-.57.01-.47,1.1-.53,1.98-.05.59-.07,1.18-.11,1.78-.04.7-.2.95-.66,1-.36.04-.73.02-1.09.04-.76.02-.89.2-1.04,1.36-.08.64-.16,2.54-.26,3.27-.29.07-.55.19-.81.18-1.32-.04-2.64-.13-3.96-.16-3.14-.07-3.52-.14-6.67-.15-2.34,0-4.69.13-7.03.11-2.5-.03-3.62-.22-6.12-.26-3.87-.05-6.37-.05-10.24-.04-1.72,0-4.48.08-6.2.17-7.93.41-3.23.16-11.16.27v1.5c6.12-.11,1.58-.04,3.34-.14,1.89-.1,6.2-.34,8.09-.44,2.24-.11,5.52-.15,7.76-.21,1.35-.04,2.71-.1,4.06-.09,2.15.04,2.92.14,5.08.19,1.82.04,2.27.04,4.09.1,1.82.05,3.64.19,5.47.22,1.35.03,1.33-.1,2.68-.09,4.29.03,7.2-.05,11.48.36.15.01.31.02.47,0,.48-.03.69-.32.74-1.08.02-.34,0-.71.04-1.05.07-.58,0-2.53.37-3.01.76-.07,1.54-.13,2.3-.2.38-1.21.08-2.49.43-3.66Z"/>
    <rect class="cls-1" x="58.5" y="1175.81" width="556.83" height="1.5"/>
    <path class="cls-1" d="m2.1,1168.21c-.61-.62-.66-.04-1.34-.68,0-.19-.24-1.12-.25-1.5,0-.37-.03-2.13,0-3.75.13-6.18.03-10.59.26-16.78.19-5.15.07-10.31.07-15.48,0-3.11-.19-9.95-.06-13.06.16-3.69.13-10.86.19-14.56h.97c0,1.03-.01,7.93-.03,8.96-.07,4.1-.19,11.96-.2,16.06-.01,5.3.09,10.59.09,15.89,0,2.24-.13,4.48-.2,6.72-.02.49-.02.97-.02,1.45,0,.84,0,1.68,0,2.52-.05,4.37-.1,6.64-.14,11.01,0,.5.02,1.01.04,1.63.33.02.87-.38,1.14-.37.56.01.47,1.1.53,1.98.05.59.07,1.18.11,1.78.04.7.2.95.66,1,.36.04.73.02,1.09.04.76.02.89.2,1.04,1.36.08.64.17,2.54.26,3.27.28.07.55.19.81.18,1.32-.04,2.64-.13,3.96-.16,3.14-.07,3.53-.14,6.67-.15,2.34,0,4.69.13,7.03.11,2.5-.03,3.62-.22,6.12-.26,3.87-.05,6.37-.05,10.24-.04,1.72,0,4.47.08,6.19.17,7.93.41,3.23.16,11.16.27v1.5c-6.12-.11-1.58-.04-3.35-.14-1.89-.1-6.2-.34-8.09-.44-2.24-.11-5.52-.15-7.76-.21-1.35-.04-2.71-.1-4.06-.09-2.15.04-2.93.14-5.08.19-1.82.04-2.27.04-4.09.1-1.82.05-3.64.19-5.47.22-1.35.03-1.33-.1-2.68-.09-4.29.03-7.2-.05-11.48.36-.16.01-.31.02-.47,0-.48-.03-.69-.32-.74-1.08-.02-.34,0-.71-.04-1.05-.08-.58,0-2.53-.37-3.01-.76-.07-1.54-.13-2.3-.2-.38-1.21-.08-2.49-.43-3.66Z"/>
    <rect class="cls-1" x="671.89" y="75.42" width=".97" height="1026.99"/>
    <rect class="cls-1" x=".98" y="75.42" width=".97" height="1026.99"/>
    <path class="cls-1" d="m671.74,9.61c.6.62.66.04,1.33.68,0,.19.24,1.12.25,1.5,0,.37.02,2.13,0,3.75-.13,6.18-.03,10.59-.26,16.78-.19,5.15-.07,10.32-.07,15.48,0,3.1.19,9.94.06,13.06-.16,3.69-.14,10.86-.19,14.56h-.97c0-1.03,0-7.93.03-8.96.07-4.11.19-11.96.2-16.06,0-5.29-.09-10.59-.09-15.89,0-2.24.13-4.48.2-6.72.01-.49.02-.97.02-1.46,0-.84,0-1.68,0-2.51.04-4.38.1-6.64.14-11.01,0-.5-.02-1.01-.04-1.64-.33-.02-.87.39-1.14.38-.57-.02-.47-1.1-.53-1.98-.05-.59-.07-1.18-.11-1.77-.04-.69-.2-.95-.66-1-.36-.04-.73-.02-1.09-.04-.76-.03-.89-.2-1.04-1.36-.08-.63-.16-2.53-.26-3.27-.29-.06-.55-.18-.81-.18-1.32.04-2.64.13-3.96.15-3.14.07-3.52.14-6.67.16-2.34,0-4.69-.14-7.03-.11-2.5.03-3.62.22-6.12.26-3.87.06-6.37.06-10.24.04-1.72,0-4.48-.08-6.2-.17-7.93-.41-3.23-.16-11.16-.27V.51c6.12.11,1.58.05,3.34.14,1.89.1,6.2.34,8.09.44,2.24.12,5.52.15,7.76.21,1.35.04,2.71.11,4.06.09,2.15-.03,2.92-.14,5.08-.19,1.82-.05,2.27-.04,4.09-.09,1.82-.05,3.64-.19,5.47-.22,1.35-.03,1.33.1,2.68.09,4.29-.03,7.2.06,11.48-.36.15-.01.31-.02.47-.01.48.04.69.33.74,1.08.02.35,0,.71.04,1.05.07.59,0,2.53.37,3.01.76.07,1.54.13,2.3.2.38,1.21.08,2.49.43,3.67Z"/>
    <rect class="cls-1" x="58.5" y=".51" width="556.83" height="1.5"/>
    <path class="cls-1" d="m2.1,9.61c-.61.62-.66.04-1.34.68,0,.19-.24,1.12-.25,1.5,0,.37-.03,2.13,0,3.75.13,6.18.03,10.59.26,16.78.19,5.15.07,10.32.07,15.48,0,3.1-.19,9.94-.06,13.06.16,3.69.13,10.86.19,14.56h.97c0-1.03-.01-7.93-.03-8.96-.07-4.11-.19-11.96-.2-16.06-.01-5.29.09-10.59.09-15.89,0-2.24-.13-4.48-.2-6.72-.02-.49-.02-.97-.02-1.46,0-.84,0-1.68,0-2.51-.05-4.38-.1-6.64-.14-11.01,0-.5.02-1.01.04-1.64.33-.02.87.39,1.14.38.56-.02.47-1.1.53-1.98.05-.59.07-1.18.11-1.77.04-.69.2-.95.66-1,.36-.04.73-.02,1.09-.04.76-.03.89-.2,1.04-1.36.08-.63.17-2.53.26-3.27.28-.06.55-.18.81-.18,1.32.04,2.64.13,3.96.15,3.14.07,3.53.14,6.67.16,2.34,0,4.69-.14,7.03-.11,2.5.03,3.62.22,6.12.26,3.87.06,6.37.06,10.24.04,1.72,0,4.47-.08,6.19-.17,7.93-.41,3.23-.16,11.16-.27V.51c-6.12.11-1.58.05-3.35.14-1.89.1-6.2.34-8.09.44-2.24.12-5.52.15-7.76.21-1.35.04-2.71.11-4.06.09-2.15-.03-2.93-.14-5.08-.19-1.82-.05-2.27-.04-4.09-.09-1.82-.05-3.64-.19-5.47-.22-1.35-.03-1.33.1-2.68.09-4.29-.03-7.2.06-11.48-.36-.16-.01-.31-.02-.47-.01-.48.04-.69.33-.74,1.08-.02.35,0,.71-.04,1.05-.08.59,0,2.53-.37,3.01-.76.07-1.54.13-2.3.2-.38,1.21-.08,2.49-.43,3.67Z"/>
  </g>
  <g>
    <path class="cls-1" d="m666.49,1162.68c.59-.62.65-.04,1.31-.67,0-.19.24-1.11.25-1.48,0-.37.02-2.11,0-3.71-.12-6.12-.03-10.49-.25-16.61-.19-5.09-.07-10.21-.07-15.32,0-3.08.19-9.85.06-12.93-.16-3.65-.13-10.75-.19-14.42h-.95c0,1.02,0,7.85.03,8.87.07,4.06.19,11.84.2,15.9,0,5.24-.09,10.49-.09,15.73,0,2.22.13,4.43.19,6.65.01.48.02.96.02,1.44,0,.83,0,1.66,0,2.49.04,4.33.09,6.57.14,10.9,0,.5-.02,1-.04,1.62-.32.02-.86-.38-1.12-.37-.56.01-.46,1.09-.52,1.96-.05.59-.07,1.17-.11,1.76-.04.69-.2.94-.65.99-.36.04-.72.02-1.07.04-.75.02-.88.2-1.03,1.34-.08.63-.16,2.51-.26,3.24-.28.07-.54.19-.8.18-1.3-.04-2.59-.13-3.89-.16-3.09-.07-3.46-.14-6.56-.15-2.3,0-4.61.13-6.91.11-2.46-.03-3.55-.22-6.01-.26-3.8-.05-6.26-.05-10.06-.04-1.69,0-4.4.08-6.09.17-7.79.41-3.17.16-10.96.27v1.48c6.01-.11,1.55-.04,3.29-.14,1.86-.1,6.09-.33,7.95-.44,2.2-.11,5.42-.15,7.62-.21,1.33-.04,2.66-.1,3.99-.09,2.11.04,2.87.14,4.99.19,1.79.04,2.23.04,4.02.1,1.79.05,3.58.19,5.37.22,1.33.03,1.31-.1,2.64-.09,4.21.03,7.07-.05,11.29.36.15.01.31.02.46,0,.48-.03.67-.32.73-1.07.02-.34,0-.7.04-1.04.07-.58,0-2.51.36-2.98.75-.07,1.51-.13,2.26-.2.37-1.2.08-2.46.43-3.63Z"/>
    <rect class="cls-1" x="63.85" y="1170.21" width="547.21" height="1.48"/>
    <path class="cls-1" d="m8.42,1162.68c-.6-.62-.65-.04-1.31-.67,0-.19-.24-1.11-.24-1.48,0-.37-.03-2.11,0-3.71.12-6.12.03-10.49.25-16.61.19-5.09.07-10.21.07-15.32,0-3.08-.19-9.85-.05-12.93.16-3.65.13-10.75.19-14.42h.95c0,1.02-.01,7.85-.03,8.87-.07,4.06-.19,11.84-.2,15.9-.01,5.24.09,10.49.09,15.73,0,2.22-.13,4.43-.19,6.65-.01.48-.02.96-.02,1.44,0,.83,0,1.66,0,2.49-.04,4.33-.09,6.57-.14,10.9,0,.5.02,1,.04,1.62.32.02.86-.38,1.12-.37.55.01.46,1.09.52,1.96.04.59.07,1.17.11,1.76.04.69.2.94.64.99.36.04.72.02,1.08.04.74.02.88.2,1.03,1.34.08.63.16,2.51.26,3.24.28.07.54.19.8.18,1.3-.04,2.59-.13,3.89-.16,3.09-.07,3.47-.14,6.55-.15,2.3,0,4.61.13,6.91.11,2.46-.03,3.56-.22,6.01-.26,3.81-.05,6.26-.05,10.06-.04,1.69,0,4.4.08,6.09.17,7.79.41,3.17.16,10.97.27v1.48c-6.01-.11-1.55-.04-3.29-.14-1.86-.1-6.09-.33-7.95-.44-2.2-.11-5.42-.15-7.62-.21-1.33-.04-2.66-.1-3.99-.09-2.12.04-2.88.14-4.99.19-1.79.04-2.23.04-4.02.1-1.79.05-3.58.19-5.37.22-1.33.03-1.31-.1-2.64-.09-4.22.03-7.07-.05-11.29.36-.15.01-.31.02-.46,0-.47-.03-.68-.32-.73-1.07-.02-.34,0-.7-.04-1.04-.07-.58,0-2.51-.36-2.98-.75-.07-1.51-.13-2.26-.2-.37-1.2-.08-2.46-.43-3.63Z"/>
    <rect class="cls-1" x="666.63" y="80.84" width=".95" height="1016.7"/>
    <rect class="cls-1" x="7.32" y="80.84" width=".95" height="1016.7"/>
    <path class="cls-1" d="m666.49,15.69c.59.61.65.04,1.31.67,0,.19.24,1.11.25,1.48,0,.37.02,2.11,0,3.71-.12,6.12-.03,10.49-.25,16.61-.19,5.09-.07,10.22-.07,15.33,0,3.07.19,9.84.06,12.93-.16,3.65-.13,10.76-.19,14.42h-.95c0-1.02,0-7.85.03-8.87.07-4.06.19-11.84.2-15.9,0-5.24-.09-10.48-.09-15.73,0-2.22.13-4.43.19-6.65.01-.48.02-.96.02-1.44,0-.83,0-1.66,0-2.49.04-4.33.09-6.57.14-10.9,0-.5-.02-1-.04-1.62-.32-.02-.86.38-1.12.37-.56-.02-.46-1.09-.52-1.96-.05-.58-.07-1.17-.11-1.76-.04-.69-.2-.94-.65-.99-.36-.04-.72-.02-1.07-.04-.75-.03-.88-.2-1.03-1.35-.08-.63-.16-2.51-.26-3.24-.28-.06-.54-.18-.8-.17-1.3.04-2.59.12-3.89.15-3.09.07-3.46.14-6.56.15-2.3,0-4.61-.14-6.91-.11-2.46.03-3.55.22-6.01.26-3.8.05-6.26.05-10.06.04-1.69,0-4.4-.08-6.09-.17-7.79-.41-3.17-.16-10.96-.27v-1.48c6.01.11,1.55.05,3.29.14,1.86.1,6.09.34,7.95.44,2.2.12,5.42.15,7.62.21,1.33.04,2.66.11,3.99.09,2.11-.03,2.87-.14,4.99-.19,1.79-.05,2.23-.04,4.02-.09,1.79-.05,3.58-.19,5.37-.22,1.33-.03,1.31.1,2.64.09,4.21-.03,7.07.05,11.29-.35.15-.01.31-.02.46-.01.48.04.67.32.73,1.07.02.34,0,.7.04,1.04.07.58,0,2.51.36,2.98.75.07,1.51.13,2.26.2.37,1.2.08,2.46.43,3.63Z"/>
    <rect class="cls-1" x="63.85" y="6.68" width="547.21" height="1.48"/>
    <path class="cls-1" d="m8.42,15.69c-.6.61-.65.04-1.31.67,0,.19-.24,1.11-.24,1.48,0,.37-.03,2.11,0,3.71.12,6.12.03,10.49.25,16.61.19,5.09.07,10.22.07,15.33,0,3.07-.19,9.84-.05,12.93.16,3.65.13,10.76.19,14.42h.95c0-1.02-.01-7.85-.03-8.87-.07-4.06-.19-11.84-.2-15.9-.01-5.24.09-10.48.09-15.73,0-2.22-.13-4.43-.19-6.65-.01-.48-.02-.96-.02-1.44,0-.83,0-1.66,0-2.49-.04-4.33-.09-6.57-.14-10.9,0-.5.02-1,.04-1.62.32-.02.86.38,1.12.37.55-.02.46-1.09.52-1.96.04-.58.07-1.17.11-1.76.04-.69.2-.94.64-.99.36-.04.72-.02,1.08-.04.74-.03.88-.2,1.03-1.35.08-.63.16-2.51.26-3.24.28-.06.54-.18.8-.17,1.3.04,2.59.12,3.89.15,3.09.07,3.47.14,6.55.15,2.3,0,4.61-.14,6.91-.11,2.46.03,3.56.22,6.01.26,3.81.05,6.26.05,10.06.04,1.69,0,4.4-.08,6.09-.17,7.79-.41,3.17-.16,10.97-.27v-1.48c-6.01.11-1.55.05-3.29.14-1.86.1-6.09.34-7.95.44-2.2.12-5.42.15-7.62.21-1.33.04-2.66.11-3.99.09-2.12-.03-2.88-.14-4.99-.19-1.79-.05-2.23-.04-4.02-.09-1.79-.05-3.58-.19-5.37-.22-1.33-.03-1.31.1-2.64.09-4.22-.03-7.07.05-11.29-.35-.15-.01-.31-.02-.46-.01-.47.04-.68.32-.73,1.07-.02.34,0,.7-.04,1.04-.07.58,0,2.51-.36,2.98-.75.07-1.51.13-2.26.2-.37,1.2-.08,2.46-.43,3.63Z"/>
  </g>
</svg>