<?xml version="1.0" encoding="UTF-8"?>
<svg id="Layer_1" data-name="Layer 1" xmlns="http://www.w3.org/2000/svg" viewBox="0 0 379.31 633.78">
  <defs>
    <style>
      .cls-1 {
        stroke: #231f20;
        stroke-miterlimit: 10;
      }
    </style>
  </defs>
  <g>
    <path class="cls-1" d="m377.91,628.38c.34-.33.37-.02.75-.37,0-.1.14-.6.14-.81,0-.2.01-1.14,0-2.01-.07-3.32-.02-5.7-.14-9.02-.11-2.77-.04-5.55-.04-8.32,0-1.67.11-5.35.03-7.02-.09-1.98-.08-5.84-.11-7.83h-.54c0,.55,0,4.27.02,4.82.04,2.21.11,6.43.11,8.64,0,2.85-.05,5.7-.05,8.54,0,1.2.07,2.41.11,3.61,0,.26.01.52.01.78,0,.45,0,.9,0,1.35.02,2.35.05,3.57.08,5.92,0,.27-.01.54-.02.88-.18.01-.49-.21-.64-.2-.32,0-.26.59-.3,1.06-.03.32-.04.64-.06.95-.02.37-.11.51-.37.54-.2.02-.41.01-.61.02-.43.01-.5.11-.59.73-.05.34-.09,1.37-.15,1.76-.16.04-.31.1-.46.1-.74-.02-1.48-.07-2.23-.08-1.77-.04-1.98-.08-3.75-.08-1.32,0-2.64.07-3.95.06-1.41-.02-2.03-.12-3.44-.14-2.18-.03-3.58-.03-5.76-.02-.97,0-2.52.04-3.48.09-4.46.22-1.82.08-6.27.14v.81c3.44-.06.89-.02,1.88-.08,1.06-.05,3.48-.18,4.55-.24,1.26-.06,3.1-.08,4.36-.11.76-.02,1.52-.06,2.28-.05,1.21.02,1.64.08,2.86.1,1.02.02,1.27.02,2.3.05,1.02.03,2.05.1,3.07.12.76.02.75-.05,1.51-.05,2.41.02,4.05-.03,6.46.19.09,0,.18.01.26,0,.27-.02.39-.17.42-.58.01-.19,0-.38.02-.56.04-.31,0-1.36.21-1.62.43-.04.86-.07,1.29-.11.21-.65.05-1.34.24-1.97Z"/>
    <rect class="cls-1" x="33.11" y="632.47" width="313.08" height=".81"/>
    <path class="cls-1" d="m1.4,628.38c-.34-.33-.37-.02-.75-.37,0-.1-.14-.6-.14-.81,0-.2-.01-1.14,0-2.01.07-3.32.02-5.7.15-9.02.11-2.77.04-5.55.04-8.32,0-1.67-.11-5.35-.03-7.02.09-1.98.08-5.84.11-7.83h.54c0,.55,0,4.27-.02,4.82-.04,2.21-.11,6.43-.11,8.64,0,2.85.05,5.7.05,8.54,0,1.2-.07,2.41-.11,3.61,0,.26-.01.52-.01.78,0,.45,0,.9,0,1.35-.03,2.35-.05,3.57-.08,5.92,0,.27.01.54.02.88.18.01.49-.21.64-.2.32,0,.26.59.3,1.06.03.32.04.64.06.95.02.37.11.51.37.54.2.02.41.01.62.02.43.01.5.11.59.73.05.34.09,1.37.15,1.76.16.04.31.1.46.1.74-.02,1.48-.07,2.23-.08,1.77-.04,1.98-.08,3.75-.08,1.32,0,2.64.07,3.95.06,1.41-.02,2.03-.12,3.44-.14,2.18-.03,3.58-.03,5.76-.02.97,0,2.52.04,3.48.09,4.46.22,1.82.08,6.27.14v.81c-3.44-.06-.89-.02-1.88-.08-1.06-.05-3.48-.18-4.55-.24-1.26-.06-3.1-.08-4.36-.11-.76-.02-1.52-.06-2.28-.05-1.21.02-1.65.08-2.86.1-1.03.02-1.27.02-2.3.05-1.03.03-2.05.1-3.07.12-.76.02-.75-.05-1.51-.05-2.41.02-4.05-.03-6.46.19-.09,0-.18.01-.26,0-.27-.02-.39-.17-.42-.58-.01-.19,0-.38-.02-.56-.04-.31,0-1.36-.21-1.62-.43-.04-.86-.07-1.29-.11-.21-.65-.05-1.34-.24-1.97Z"/>
    <rect class="cls-1" x="377.99" y="40.79" width=".54" height="552.21"/>
    <rect class="cls-1" x=".77" y="40.79" width=".54" height="552.21"/>
    <path class="cls-1" d="m377.91,5.4c.34.33.37.02.75.36,0,.1.14.6.14.81,0,.2.01,1.14,0,2.01-.07,3.32-.02,5.7-.14,9.02-.11,2.77-.04,5.55-.04,8.32,0,1.67.11,5.35.03,7.02-.09,1.98-.08,5.84-.11,7.83h-.54c0-.55,0-4.26.02-4.82.04-2.21.11-6.43.11-8.64,0-2.85-.05-5.69-.05-8.54,0-1.2.07-2.41.11-3.61,0-.26.01-.52.01-.78,0-.45,0-.9,0-1.35.02-2.35.05-3.57.08-5.92,0-.27-.01-.54-.02-.88-.18,0-.49.21-.64.2-.32,0-.26-.59-.3-1.06-.03-.32-.04-.64-.06-.95-.02-.37-.11-.51-.37-.54-.2-.02-.41-.01-.61-.02-.43-.01-.5-.11-.59-.73-.05-.34-.09-1.36-.15-1.76-.16-.03-.31-.1-.46-.09-.74.02-1.48.07-2.23.08-1.77.04-1.98.08-3.75.08-1.32,0-2.64-.08-3.95-.06-1.41.01-2.03.12-3.44.14-2.18.03-3.58.03-5.76.02-.97,0-2.52-.04-3.48-.09-4.46-.22-1.82-.09-6.27-.14v-.81c3.44.06.89.03,1.88.08,1.06.05,3.48.18,4.55.24,1.26.06,3.1.08,4.36.12.76.02,1.52.06,2.28.05,1.21-.02,1.64-.08,2.86-.1,1.02-.03,1.27-.02,2.3-.05,1.02-.03,2.05-.1,3.07-.12.76-.01.75.05,1.51.05,2.41-.01,4.05.03,6.46-.19.09,0,.18-.01.26,0,.27.02.39.18.42.58.01.19,0,.38.02.57.04.32,0,1.36.21,1.62.43.04.86.07,1.29.11.21.65.05,1.34.24,1.97Z"/>
    <rect class="cls-1" x="33.11" y=".51" width="313.08" height=".81"/>
    <path class="cls-1" d="m1.4,5.4c-.34.33-.37.02-.75.36,0,.1-.14.6-.14.81,0,.2-.01,1.14,0,2.01.07,3.32.02,5.7.15,9.02.11,2.77.04,5.55.04,8.32,0,1.67-.11,5.35-.03,7.02.09,1.98.08,5.84.11,7.83h.54c0-.55,0-4.26-.02-4.82-.04-2.21-.11-6.43-.11-8.64,0-2.85.05-5.69.05-8.54,0-1.2-.07-2.41-.11-3.61,0-.26-.01-.52-.01-.78,0-.45,0-.9,0-1.35-.03-2.35-.05-3.57-.08-5.92,0-.27.01-.54.02-.88.18,0,.49.21.64.2.32,0,.26-.59.3-1.06.03-.32.04-.64.06-.95.02-.37.11-.51.37-.54.2-.02.41-.01.62-.02.43-.01.5-.11.59-.73.05-.34.09-1.36.15-1.76.16-.03.31-.1.46-.09.74.02,1.48.07,2.23.08,1.77.04,1.98.08,3.75.08,1.32,0,2.64-.08,3.95-.06,1.41.01,2.03.12,3.44.14,2.18.03,3.58.03,5.76.02.97,0,2.52-.04,3.48-.09,4.46-.22,1.82-.09,6.27-.14v-.81c-3.44.06-.89.03-1.88.08-1.06.05-3.48.18-4.55.24-1.26.06-3.1.08-4.36.12-.76.02-1.52.06-2.28.05-1.21-.02-1.65-.08-2.86-.1-1.03-.03-1.27-.02-2.3-.05-1.03-.03-2.05-.1-3.07-.12-.76-.01-.75.05-1.51.05-2.41-.01-4.05.03-6.46-.19-.09,0-.18-.01-.26,0-.27.02-.39.18-.42.58-.01.19,0,.38-.02.57-.04.32,0,1.36-.21,1.62-.43.04-.86.07-1.29.11-.21.65-.05,1.34-.24,1.97Z"/>
  </g>
  <g>
    <path class="cls-1" d="m372.03,613.65c.33-.32.36-.02.72-.35,0-.1.13-.58.14-.77,0-.19.01-1.09,0-1.92-.07-3.17-.02-5.44-.14-8.62-.1-2.64-.04-5.3-.04-7.95,0-1.6.1-5.11.03-6.71-.09-1.89-.07-5.58-.1-7.48h-.52c0,.53,0,4.07.02,4.6.04,2.11.1,6.14.11,8.25,0,2.72-.05,5.44-.05,8.16,0,1.15.07,2.3.11,3.45,0,.25.01.5.01.75,0,.43,0,.86,0,1.29.02,2.25.05,3.41.08,5.66,0,.26-.01.52-.02.84-.18.01-.47-.2-.62-.19-.31,0-.25.57-.29,1.02-.03.3-.04.61-.06.91-.02.36-.11.49-.36.51-.2.02-.4.01-.59.02-.41.01-.48.1-.57.7-.04.33-.09,1.3-.14,1.68-.15.03-.3.1-.44.09-.72-.02-1.43-.07-2.15-.08-1.7-.03-1.91-.07-3.62-.08-1.27,0-2.54.07-3.81.06-1.35-.02-1.96-.12-3.32-.13-2.1-.03-3.45-.03-5.55-.02-.93,0-2.43.04-3.36.09-4.3.21-1.75.08-6.05.14v.77c3.32-.06.85-.02,1.81-.07,1.02-.05,3.36-.17,4.38-.23,1.21-.06,2.99-.08,4.21-.11.73-.02,1.47-.05,2.2-.05,1.17.02,1.59.07,2.75.1.99.02,1.23.02,2.22.05.99.03,1.98.1,2.96.11.73.02.72-.05,1.45-.05,2.32.02,3.9-.03,6.23.18.08,0,.17.01.25,0,.26-.02.37-.17.4-.55.01-.18,0-.37.02-.54.04-.3,0-1.3.2-1.55.41-.03.83-.07,1.25-.1.2-.62.04-1.28.24-1.88Z"/>
    <rect class="cls-1" x="39.58" y="617.55" width="301.87" height=".77"/>
    <path class="cls-1" d="m9,613.65c-.33-.32-.36-.02-.72-.35,0-.1-.13-.58-.13-.77,0-.19-.01-1.09,0-1.92.07-3.17.02-5.44.14-8.62.1-2.64.04-5.3.04-7.95,0-1.6-.1-5.11-.03-6.71.09-1.89.07-5.58.1-7.48h.52c0,.53,0,4.07-.02,4.6-.04,2.11-.1,6.14-.11,8.25,0,2.72.05,5.44.05,8.16,0,1.15-.07,2.3-.11,3.45,0,.25-.01.5-.01.75,0,.43,0,.86,0,1.29-.02,2.25-.05,3.41-.07,5.66,0,.26.01.52.02.84.18.01.47-.2.62-.19.3,0,.25.57.29,1.02.02.3.04.61.06.91.02.36.11.49.36.51.2.02.4.01.59.02.41.01.48.1.57.7.04.33.09,1.3.14,1.68.15.03.3.1.44.09.72-.02,1.43-.07,2.15-.08,1.7-.03,1.91-.07,3.62-.08,1.27,0,2.54.07,3.81.06,1.35-.02,1.96-.12,3.32-.13,2.1-.03,3.45-.03,5.55-.02.93,0,2.43.04,3.36.09,4.3.21,1.75.08,6.05.14v.77c-3.32-.06-.86-.02-1.81-.07-1.02-.05-3.36-.17-4.38-.23-1.21-.06-2.99-.08-4.2-.11-.73-.02-1.47-.05-2.2-.05-1.17.02-1.59.07-2.75.1-.99.02-1.23.02-2.22.05-.99.03-1.98.1-2.96.11-.73.02-.72-.05-1.45-.05-2.33.02-3.9-.03-6.23.18-.08,0-.17.01-.25,0-.26-.02-.37-.17-.4-.55-.01-.18,0-.37-.02-.54-.04-.3,0-1.3-.2-1.55-.41-.03-.83-.07-1.25-.1-.21-.62-.04-1.28-.24-1.88Z"/>
    <rect class="cls-1" x="372.11" y="52.3" width=".52" height="527.54"/>
    <rect class="cls-1" x="8.4" y="52.3" width=".52" height="527.54"/>
    <path class="cls-1" d="m372.03,18.5c.33.32.36.02.72.35,0,.1.13.58.14.77,0,.19.01,1.09,0,1.92-.07,3.18-.02,5.44-.14,8.62-.1,2.64-.04,5.3-.04,7.95,0,1.59.1,5.11.03,6.71-.09,1.9-.07,5.58-.1,7.48h-.52c0-.53,0-4.07.02-4.6.04-2.11.1-6.14.11-8.25,0-2.72-.05-5.44-.05-8.16,0-1.15.07-2.3.11-3.45,0-.25.01-.5.01-.75,0-.43,0-.86,0-1.29.02-2.25.05-3.41.08-5.66,0-.26-.01-.52-.02-.84-.18,0-.47.2-.62.19-.31,0-.25-.57-.29-1.02-.03-.3-.04-.61-.06-.91-.02-.36-.11-.49-.36-.51-.2-.02-.4-.01-.59-.02-.41-.01-.48-.1-.57-.7-.04-.33-.09-1.3-.14-1.68-.15-.03-.3-.09-.44-.09-.72.02-1.43.06-2.15.08-1.7.03-1.91.07-3.62.08-1.27,0-2.54-.07-3.81-.06-1.35.01-1.96.11-3.32.13-2.1.03-3.45.03-5.55.02-.93,0-2.43-.04-3.36-.09-4.3-.21-1.75-.08-6.05-.14v-.77c3.32.06.85.02,1.81.07,1.02.05,3.36.18,4.38.23,1.21.06,2.99.08,4.21.11.73.02,1.47.05,2.2.04,1.17-.02,1.59-.07,2.75-.1.99-.02,1.23-.02,2.22-.05.99-.03,1.98-.1,2.96-.11.73-.01.72.05,1.45.05,2.32-.01,3.9.03,6.23-.18.08,0,.17-.01.25,0,.26.02.37.17.4.56.01.18,0,.37.02.54.04.3,0,1.3.2,1.55.41.03.83.07,1.25.1.2.62.04,1.28.24,1.89Z"/>
    <rect class="cls-1" x="39.58" y="13.83" width="301.87" height=".77"/>
    <path class="cls-1" d="m9,18.5c-.33.32-.36.02-.72.35,0,.1-.13.58-.13.77,0,.19-.01,1.09,0,1.92.07,3.18.02,5.44.14,8.62.1,2.64.04,5.3.04,7.95,0,1.59-.1,5.11-.03,6.71.09,1.9.07,5.58.1,7.48h.52c0-.53,0-4.07-.02-4.6-.04-2.11-.1-6.14-.11-8.25,0-2.72.05-5.44.05-8.16,0-1.15-.07-2.3-.11-3.45,0-.25-.01-.5-.01-.75,0-.43,0-.86,0-1.29-.02-2.25-.05-3.41-.07-5.66,0-.26.01-.52.02-.84.18,0,.47.2.62.19.3,0,.25-.57.29-1.02.02-.3.04-.61.06-.91.02-.36.11-.49.36-.51.2-.02.4-.01.59-.02.41-.01.48-.1.57-.7.04-.33.09-1.3.14-1.68.15-.03.3-.09.44-.09.72.02,1.43.06,2.15.08,1.7.03,1.91.07,3.62.08,1.27,0,2.54-.07,3.81-.06,1.35.01,1.96.11,3.32.13,2.1.03,3.45.03,5.55.02.93,0,2.43-.04,3.36-.09,4.3-.21,1.75-.08,6.05-.14v-.77c-3.32.06-.86.02-1.81.07-1.02.05-3.36.18-4.38.23-1.21.06-2.99.08-4.2.11-.73.02-1.47.05-2.2.04-1.17-.02-1.59-.07-2.75-.1-.99-.02-1.23-.02-2.22-.05-.99-.03-1.98-.1-2.96-.11-.73-.01-.72.05-1.45.05-2.33-.01-3.9.03-6.23-.18-.08,0-.17-.01-.25,0-.26.02-.37.17-.4.56-.01.18,0,.37-.02.54-.04.3,0,1.3-.2,1.55-.41.03-.83.07-1.25.1-.21.62-.04,1.28-.24,1.89Z"/>
  </g>
</svg>