<?xml version="1.0" encoding="UTF-8"?>
<svg id="Layer_1" data-name="Layer 1" xmlns="http://www.w3.org/2000/svg" viewBox="0 0 470.59 368.7">
  <defs>
    <style>
      .cls-1 {
        stroke: #231f20;
        stroke-miterlimit: 10;
      }
    </style>
  </defs>
  <g>
    <path class="cls-1" d="m468.98,365.35c.42-.19.46-.01.93-.21,0-.06.17-.35.18-.47,0-.12.02-.66,0-1.17-.09-1.93-.02-3.31-.18-5.24-.13-1.61-.05-3.22-.05-4.84,0-.97.13-3.11.04-4.08-.11-1.15-.09-3.39-.13-4.55h-.67c0,.32,0,2.48.02,2.8.05,1.28.13,3.74.14,5.02,0,1.65-.06,3.31-.06,4.96,0,.7.09,1.4.14,2.1.01.15.01.3.02.45,0,.26,0,.52,0,.79.03,1.37.07,2.07.1,3.44,0,.16-.02.32-.03.51-.23,0-.61-.12-.8-.12-.39,0-.33.34-.37.62-.03.18-.05.37-.08.55-.03.22-.14.3-.46.31-.25.01-.51,0-.76.01-.53,0-.62.06-.73.42-.06.2-.11.79-.18,1.02-.2.02-.38.06-.57.06-.92-.01-1.84-.04-2.76-.05-2.19-.02-2.46-.04-4.66-.05-1.64,0-3.27.04-4.91.04-1.74,0-2.52-.07-4.27-.08-2.7-.02-4.44-.02-7.15-.01-1.2,0-3.12.03-4.32.05-5.53.13-2.25.05-7.79.08v.47c4.27-.04,1.1-.01,2.33-.04,1.32-.03,4.32-.11,5.64-.14,1.56-.04,3.85-.05,5.41-.07.94-.01,1.89-.03,2.83-.03,1.5.01,2.04.04,3.55.06,1.27.01,1.58.01,2.85.03,1.27.02,2.54.06,3.82.07.94,0,.93-.03,1.87-.03,2.99,0,5.02-.02,8.02.11.11,0,.22,0,.33,0,.34,0,.48-.1.52-.34.02-.11,0-.22.03-.33.05-.18,0-.79.26-.94.53-.02,1.07-.04,1.61-.06.26-.38.06-.78.3-1.14Z"/>
    <rect class="cls-1" x="40.98" y="367.72" width="388.63" height=".47"/>
    <path class="cls-1" d="m1.61,365.35c-.42-.19-.46-.01-.93-.21,0-.06-.17-.35-.17-.47,0-.12-.02-.66,0-1.17.09-1.93.02-3.31.18-5.24.13-1.61.05-3.22.05-4.84,0-.97-.13-3.11-.04-4.08.11-1.15.09-3.39.13-4.55h.67c0,.32,0,2.48-.02,2.8-.05,1.28-.13,3.74-.14,5.02,0,1.65.06,3.31.06,4.96,0,.7-.09,1.4-.14,2.1-.01.15-.02.3-.02.45,0,.26,0,.52,0,.79-.03,1.37-.07,2.07-.1,3.44,0,.16.02.32.03.51.23,0,.61-.12.8-.12.39,0,.32.34.37.62.03.18.05.37.08.55.03.22.14.3.46.31.25.01.51,0,.76.01.53,0,.62.06.73.42.06.2.12.79.18,1.02.2.02.38.06.57.06.92-.01,1.84-.04,2.76-.05,2.19-.02,2.46-.04,4.66-.05,1.64,0,3.27.04,4.91.04,1.74,0,2.53-.07,4.27-.08,2.7-.02,4.44-.02,7.15-.01,1.2,0,3.12.03,4.32.05,5.53.13,2.25.05,7.79.08v.47c-4.27-.04-1.1-.01-2.33-.04-1.32-.03-4.32-.11-5.64-.14-1.56-.04-3.85-.05-5.41-.07-.94-.01-1.89-.03-2.83-.03-1.5.01-2.04.04-3.54.06-1.27.01-1.58.01-2.85.03-1.27.02-2.54.06-3.82.07-.94,0-.93-.03-1.87-.03-2.99,0-5.02-.02-8.01.11-.11,0-.22,0-.33,0-.34,0-.48-.1-.52-.34-.02-.11,0-.22-.03-.33-.05-.18,0-.79-.26-.94-.53-.02-1.07-.04-1.6-.06-.26-.38-.06-.78-.3-1.14Z"/>
    <rect class="cls-1" x="469.08" y="23.91" width=".67" height="320.88"/>
    <rect class="cls-1" x=".84" y="23.91" width=".67" height="320.88"/>
    <path class="cls-1" d="m468.98,3.35c.42.19.46.01.93.21,0,.06.17.35.18.47,0,.12.02.67,0,1.17-.09,1.93-.02,3.31-.18,5.24-.13,1.61-.05,3.22-.05,4.84,0,.97.13,3.11.04,4.08-.11,1.15-.09,3.39-.13,4.55h-.67c0-.32,0-2.48.02-2.8.05-1.28.13-3.74.14-5.02,0-1.65-.06-3.31-.06-4.96,0-.7.09-1.4.14-2.1.01-.15.01-.3.02-.46,0-.26,0-.52,0-.78.03-1.37.07-2.07.1-3.44,0-.16-.02-.32-.03-.51-.23,0-.61.12-.8.12-.39,0-.33-.34-.37-.62-.03-.18-.05-.37-.08-.55-.03-.22-.14-.3-.46-.31-.25-.01-.51,0-.76-.01-.53,0-.62-.06-.73-.42-.06-.2-.11-.79-.18-1.02-.2-.02-.38-.06-.57-.06-.92.01-1.84.04-2.76.05-2.19.02-2.46.05-4.66.05-1.64,0-3.27-.04-4.91-.04-1.74,0-2.52.07-4.27.08-2.7.02-4.44.02-7.15.01-1.2,0-3.12-.03-4.32-.05-5.53-.13-2.25-.05-7.79-.08v-.47c4.27.03,1.1.01,2.33.04,1.32.03,4.32.11,5.64.14,1.56.04,3.85.05,5.41.07.94.01,1.89.03,2.83.03,1.5-.01,2.04-.04,3.55-.06,1.27-.01,1.58-.01,2.85-.03,1.27-.02,2.54-.06,3.82-.07.94,0,.93.03,1.87.03,2.99,0,5.02.02,8.02-.11.11,0,.22,0,.33,0,.34.01.48.1.52.34.02.11,0,.22.03.33.05.18,0,.79.26.94.53.02,1.07.04,1.61.06.26.38.06.78.3,1.15Z"/>
    <rect class="cls-1" x="40.98" y=".5" width="388.63" height=".47"/>
    <path class="cls-1" d="m1.61,3.35c-.42.19-.46.01-.93.21,0,.06-.17.35-.17.47,0,.12-.02.67,0,1.17.09,1.93.02,3.31.18,5.24.13,1.61.05,3.22.05,4.84,0,.97-.13,3.11-.04,4.08.11,1.15.09,3.39.13,4.55h.67c0-.32,0-2.48-.02-2.8-.05-1.28-.13-3.74-.14-5.02,0-1.65.06-3.31.06-4.96,0-.7-.09-1.4-.14-2.1-.01-.15-.02-.3-.02-.46,0-.26,0-.52,0-.78-.03-1.37-.07-2.07-.1-3.44,0-.16.02-.32.03-.51.23,0,.61.12.8.12.39,0,.32-.34.37-.62.03-.18.05-.37.08-.55.03-.22.14-.3.46-.31.25-.01.51,0,.76-.01.53,0,.62-.06.73-.42.06-.2.12-.79.18-1.02.2-.02.38-.06.57-.06.92.01,1.84.04,2.76.05,2.19.02,2.46.05,4.66.05,1.64,0,3.27-.04,4.91-.04,1.74,0,2.53.07,4.27.08,2.7.02,4.44.02,7.15.01,1.2,0,3.12-.03,4.32-.05,5.53-.13,2.25-.05,7.79-.08v-.47c-4.27.03-1.1.01-2.33.04-1.32.03-4.32.11-5.64.14-1.56.04-3.85.05-5.41.07-.94.01-1.89.03-2.83.03-1.5-.01-2.04-.04-3.54-.06-1.27-.01-1.58-.01-2.85-.03-1.27-.02-2.54-.06-3.82-.07-.94,0-.93.03-1.87.03-2.99,0-5.02.02-8.01-.11-.11,0-.22,0-.33,0-.34.01-.48.1-.52.34-.02.11,0,.22-.03.33-.05.18,0,.79-.26.94-.53.02-1.07.04-1.6.06-.26.38-.06.78-.3,1.15Z"/>
  </g>
  <g>
    <path class="cls-1" d="m461.68,356.79c.41-.19.45-.01.9-.2,0-.06.16-.34.17-.45,0-.11.02-.63,0-1.12-.08-1.84-.02-3.16-.17-5.01-.13-1.54-.05-3.08-.05-4.62,0-.93.13-2.97.04-3.9-.11-1.1-.09-3.24-.13-4.35h-.65c0,.31,0,2.37.02,2.67.05,1.23.13,3.57.14,4.79,0,1.58-.06,3.16-.06,4.74,0,.67.09,1.34.13,2.01,0,.15.01.29.02.43,0,.25,0,.5,0,.75.03,1.31.07,1.98.09,3.29,0,.15-.02.3-.03.49-.22,0-.59-.11-.77-.11-.38,0-.32.33-.36.59-.03.18-.05.35-.07.53-.03.21-.14.28-.44.3-.24.01-.49,0-.74.01-.51,0-.6.06-.7.4-.06.19-.11.76-.18.98-.19.02-.37.06-.55.05-.89-.01-1.78-.04-2.66-.05-2.11-.02-2.37-.04-4.49-.04-1.58,0-3.16.04-4.73.03-1.68,0-2.43-.07-4.12-.08-2.61-.02-4.28-.02-6.89-.01-1.16,0-3.01.02-4.17.05-5.33.12-2.17.05-7.51.08v.45c4.12-.03,1.06-.01,2.25-.04,1.27-.03,4.17-.1,5.44-.13,1.51-.03,3.71-.04,5.22-.06.91-.01,1.82-.03,2.73-.03,1.45.01,1.97.04,3.42.06,1.23.01,1.53.01,2.75.03,1.23.02,2.45.06,3.68.06.91,0,.89-.03,1.81-.03,2.89,0,4.84-.02,7.73.11.1,0,.21,0,.32,0,.33,0,.46-.1.5-.32.02-.1,0-.21.03-.31.05-.17,0-.76.25-.9.51-.02,1.03-.04,1.55-.06.25-.36.06-.74.29-1.09Z"/>
    <rect class="cls-1" x="49.01" y="359.06" width="374.71" height=".45"/>
    <path class="cls-1" d="m11.06,356.79c-.41-.19-.45-.01-.9-.2,0-.06-.16-.34-.17-.45,0-.11-.02-.63,0-1.12.09-1.84.02-3.16.17-5.01.13-1.54.05-3.08.05-4.62,0-.93-.13-2.97-.04-3.9.11-1.1.09-3.24.13-4.35h.65c0,.31,0,2.37-.02,2.67-.05,1.23-.13,3.57-.14,4.79,0,1.58.06,3.16.06,4.74,0,.67-.09,1.34-.13,2.01-.01.15-.01.29-.02.43,0,.25,0,.5,0,.75-.03,1.31-.06,1.98-.09,3.29,0,.15.01.3.03.49.22,0,.59-.11.77-.11.38,0,.31.33.36.59.03.18.05.35.07.53.03.21.14.28.44.3.25.01.49,0,.74.01.51,0,.6.06.7.4.05.19.11.76.18.98.19.02.37.06.55.05.89-.01,1.78-.04,2.66-.05,2.12-.02,2.37-.04,4.49-.04,1.58,0,3.15.04,4.73.03,1.68,0,2.44-.07,4.12-.08,2.61-.02,4.28-.02,6.89-.01,1.16,0,3.01.02,4.17.05,5.34.12,2.17.05,7.51.08v.45c-4.12-.03-1.06-.01-2.25-.04-1.27-.03-4.17-.1-5.44-.13-1.51-.03-3.71-.04-5.22-.06-.91-.01-1.82-.03-2.73-.03-1.45.01-1.97.04-3.42.06-1.23.01-1.52.01-2.75.03-1.23.02-2.45.06-3.68.06-.91,0-.89-.03-1.81-.03-2.89,0-4.84-.02-7.73.11-.1,0-.21,0-.32,0-.33,0-.46-.1-.5-.32-.02-.1,0-.21-.03-.31-.05-.17,0-.76-.25-.9-.51-.02-1.03-.04-1.55-.06-.25-.36-.05-.74-.29-1.09Z"/>
    <rect class="cls-1" x="461.78" y="30.6" width=".65" height="306.55"/>
    <rect class="cls-1" x="10.31" y="30.6" width=".65" height="306.55"/>
    <path class="cls-1" d="m461.68,10.96c.41.19.45.01.9.2,0,.06.16.34.17.45,0,.11.02.64,0,1.12-.08,1.85-.02,3.16-.17,5.01-.13,1.54-.05,3.08-.05,4.62,0,.93.13,2.97.04,3.9-.11,1.1-.09,3.24-.13,4.35h-.65c0-.31,0-2.37.02-2.67.05-1.23.13-3.57.14-4.79,0-1.58-.06-3.16-.06-4.74,0-.67.09-1.34.13-2.01,0-.15.01-.29.02-.44,0-.25,0-.5,0-.75.03-1.31.07-1.98.09-3.29,0-.15-.02-.3-.03-.49-.22,0-.59.12-.77.11-.38,0-.32-.33-.36-.59-.03-.18-.05-.35-.07-.53-.03-.21-.14-.28-.44-.3-.24-.01-.49,0-.74-.01-.51,0-.6-.06-.7-.41-.06-.19-.11-.76-.18-.98-.19-.02-.37-.05-.55-.05-.89.01-1.78.04-2.66.05-2.11.02-2.37.04-4.49.05-1.58,0-3.16-.04-4.73-.03-1.68,0-2.43.07-4.12.08-2.61.02-4.28.02-6.89.01-1.16,0-3.01-.02-4.17-.05-5.33-.12-2.17-.05-7.51-.08v-.45c4.12.03,1.06.01,2.25.04,1.27.03,4.17.1,5.44.13,1.51.03,3.71.05,5.22.06.91.01,1.82.03,2.73.03,1.45-.01,1.97-.04,3.42-.06,1.23-.01,1.53-.01,2.75-.03,1.23-.02,2.45-.06,3.68-.07.91,0,.89.03,1.81.03,2.89,0,4.84.02,7.73-.11.1,0,.21,0,.32,0,.33.01.46.1.5.32.02.1,0,.21.03.31.05.17,0,.76.25.9.51.02,1.03.04,1.55.06.25.36.06.74.29,1.1Z"/>
    <rect class="cls-1" x="49.01" y="8.24" width="374.71" height=".45"/>
    <path class="cls-1" d="m11.06,10.96c-.41.19-.45.01-.9.2,0,.06-.16.34-.17.45,0,.11-.02.64,0,1.12.09,1.85.02,3.16.17,5.01.13,1.54.05,3.08.05,4.62,0,.93-.13,2.97-.04,3.9.11,1.1.09,3.24.13,4.35h.65c0-.31,0-2.37-.02-2.67-.05-1.23-.13-3.57-.14-4.79,0-1.58.06-3.16.06-4.74,0-.67-.09-1.34-.13-2.01-.01-.15-.01-.29-.02-.44,0-.25,0-.5,0-.75-.03-1.31-.06-1.98-.09-3.29,0-.15.01-.3.03-.49.22,0,.59.12.77.11.38,0,.31-.33.36-.59.03-.18.05-.35.07-.53.03-.21.14-.28.44-.3.25-.01.49,0,.74-.01.51,0,.6-.06.7-.41.05-.19.11-.76.18-.98.19-.02.37-.05.55-.05.89.01,1.78.04,2.66.05,2.12.02,2.37.04,4.49.05,1.58,0,3.15-.04,4.73-.03,1.68,0,2.44.07,4.12.08,2.61.02,4.28.02,6.89.01,1.16,0,3.01-.02,4.17-.05,5.34-.12,2.17-.05,7.51-.08v-.45c-4.12.03-1.06.01-2.25.04-1.27.03-4.17.1-5.44.13-1.51.03-3.71.05-5.22.06-.91.01-1.82.03-2.73.03-1.45-.01-1.97-.04-3.42-.06-1.23-.01-1.52-.01-2.75-.03-1.23-.02-2.45-.06-3.68-.07-.91,0-.89.03-1.81.03-2.89,0-4.84.02-7.73-.11-.1,0-.21,0-.32,0-.33.01-.46.1-.5.32-.02.1,0,.21-.03.31-.05.17,0,.76-.25.9-.51.02-1.03.04-1.55.06-.25.36-.05.74-.29,1.1Z"/>
  </g>
</svg>