<svg width="174" height="176" fill="none" xmlns="http://www.w3.org/2000/svg">
    <path d="M34.159 33.569c1.568-2.705 5.868-9.195 6.95-10.871 1.081-1.676 4.137-6.247 4.651-7.004 1.326.784 4.787 3.083 5.733 3.758.947.677 2.867 2.624 3.327 3.11.162 3.733.297 8.221.405 13.009.108 4.787.622 13.359.758 19.552.135 6.193.46 14.901.567 16.415-1.973 1.433-6.354 4.273-9.086 5.842-2.731 1.568-11.033 5.813-12.061 6.3-.163-3.812-.434-13.223-.677-17.956-.243-4.733-.567-11.98-.648-17.767-.082-5.788 0-11.467.08-14.388z" fill="#98C5D3"/>
    <path d="M7.016 23.912c2.285-2.56 11.146-11.421 12.249-12.917-.08-1.3-.236-4.017-.236-5.593 0-1.576.709-3.15 3.505-2.915 2.796.236 17.526 2.993 18.983 3.23 1.457.235 3.032.708 3.111 3.032.079 2.324.158 5.002.197 5.947-2.047 2.757-4.292 5.514-6.498 9.255-2.207 3.74-4.765 7.876-5.475 9.137-.118 5.868.04 15.438.198 22.802.158 7.364.866 25.324.827 27.49-2.481-.591-11.383-3.938-14.257-4.844-2.875-.906-10.003-3.702-11.263-3.978-.276-6.853-1.104-21.384-1.142-28.591-.042-7.207-.032-14.777-.199-22.055zm20.882-9.29c-.56-1.658-2.617-1.854-5.42-1.11-2.805.743-4.595 2.445-4.231 4.152.364 1.707 2.59 2.168 5.406 1.554 3.252-.709 4.807-2.938 4.245-4.596zm-8.251 8.863c.923.898 2.867.956 4.968.494 2.1-.462 4.121-1.217 5.074-3.138-.113-.536-.788-2.897-1.004-3.763-.625 1.688-2.62 2.67-4.73 3.178-2.11.508-4.142.325-5.293-.35.168.753.562 2.221.985 3.58zM79.806 35.063c-9.115.133-21.739-.56-21.739-6.163 0-5.006 8.815-8.703 21.067-8.815 12.251-.112 21.813 2.354 21.776 7.172-.037 4.818-5.753 7.582-21.104 7.806z" fill="#98C5D3"/>
    <path d="M58.194 32.36c2.54 3.361 11.243 4.033 21.328 3.996 10.084-.038 18.526-1.606 21.29-4.968 0 1.606-.112 5.154-.224 6.35-6.648 3.287-13.036 4.332-21.03 4.183-7.993-.15-17.667-.784-21.14-3.4-.075-1.866-.112-4.555-.224-6.162z" fill="#98C5D3"/>
    <path d="M63.68 27.96c2.128-2.39 7.096-4.246 15.548-4.219 8.453.027 12.997.987 15.313 3.378-3.167-1.472-8.92-2.204-15.638-2.153-6.74.052-12.24 1.203-15.223 2.995z" fill="#fff"/>
    <path d="M59.911 40.725c4.88 1.868 11.017 2.157 20.507 2.317 8.877.15 13.31-1.146 17.667-2.69-.672 6.648-3.623 28.462-3.698 30.815-3.212 3.922-7.582 6.536-15.613 6.499-8.031-.037-11.953-2.428-15.202-6.836-.934-7.656-3.137-24.838-3.66-30.105zM104.623 24.915c2.69.86 23.461 8.268 24.992 8.604.149 4.146-.299 18.949-.261 24.962.037 6.013.261 17.331.224 19.423-2.541-.934-12.294-5.018-15.58-5.99-3.287-.97-7.695-2.651-8.889-3.025-.075-6.088-.411-16.883-.523-23.12-.112-6.238.074-19.024.037-20.854zM104.809 23.495c2.503-2.204 11.99-8.255 14.567-9.749 2.802.71 10.617 3.453 11.401 3.602-.089 2.4-.022 4.96-.022 6.154 0 1.195 1.531 2.802 3.81 2.802s3.511-1.42 3.548-2.578c.038-1.157.046-2.896.038-4.482 2.279.784 8.82 3.35 9.791 3.685-2.466 1.494-14.609 8.043-17.225 9.35-5.079-1.68-15.263-5.123-17.877-6.095-2.615-.97-6.276-1.979-8.031-2.69zM131.142 33.454c2.353-1.307 5.901-3.138 9.002-4.706 3.1-1.569 6.61-3.96 8.03-4.557.075 3.511.336 16.67.374 22.235.037 5.565.336 18.153.485 21.739-3.474 2.053-7.246 4.108-8.74 4.743-1.494.635-7.994 4.52-9.375 5.08.037-3.66.112-15.65 0-20.805-.112-5.155.112-19.882.224-23.729z" fill="#98C5D3"/>
    <path d="M134.589 25.308c-1.618.067-2.69-.822-2.764-2.44-.075-1.62-.1-8.082-.025-10.622.075-2.54 1.146-3.96 3.038-5.229 1.892-1.27 10.06-5.852 10.633-6.1-.673.921-.797 2.49-.374 3.76.424 1.269 1.021 1.991 2.142 2.44-1.345.671-6.226 3.41-7.919 4.183-1.693.772-2.067 2.241-2.042 4.756.024 2.515-.025 4.844-.025 6.487 0 1.643-.872 2.69-2.664 2.765z" fill="#98C5D3"/>
    <path d="M146.299 3.762c-.331-1.542-.15-3.288 1.22-3.686 1.37-.398 2.166.822 2.664 2.242.499 1.419.424 3.063-.771 3.586-1.196.522-2.665-.051-3.113-2.142zM32.639 92.068c-.039-7.75 12.467-10.825 23.53-11.46 11.063-.637 23.2 2.01 24.172 9.453.972 7.444-8.978 13.136-24.069 13.262-15.09.126-23.592-2.845-23.633-11.255zM22.462 164.056c-.34-2.182-3.948-3.064-7.175-2.605-2.949.419-3.322-.204-4.77-.651-1.123-.348-2.669-.487-4.39-.471-3.563.032-6.127 1.107-6.127 2.563 0 1.629 3.671 1.748 6.323 1.793 2.094.036 2.215 1.052 2.349 1.365.706 1.648 3.082 2.201 6.81 2.079 4.436-.145 7.32-1.891 6.98-4.073zM10.17 158.78c.037-.947 1.58-1.255 2.934-1.273 1.354-.018 2.82.37 2.9 1.283.078.915-1.167 1.556-3.01 1.49-1.842-.066-2.865-.474-2.825-1.5z" fill="#98C5D3"/>
    <path d="M31.77 95.55c1.142 7.242 10.815 9.539 26.408 9.096 15.593-.443 21.427-4.71 23.27-10.932a140.928 140.928 0 011.373 3.415c.594 1.553-.186 4.655-1.963 6.108-4.375 3.575-10.498 6.724-23.743 6.673-13.245-.05-22.131-1.888-26.245-6.716-1.575-1.848-1.275-3.762-.818-4.802a13.322 13.322 0 011.718-2.843z" fill="#98C5D3"/>
    <path d="M33.627 107.302c4.065 2.326 12.786 4.333 23.067 4.068 11.508-.295 19.363-2.864 22.345-5.141-.395 2.669-1.595 7.86-1.894 9.996-5.479 6.008-12.604 6.993-20.847 6.956-8.243-.036-17.213-1.548-21.385-6.267-.613-3.601-1.097-7.257-1.286-9.612zM84.813 87.44c2.216.472 9.238 2.066 12.824 2.813 3.586.747 13.621 2.914 14.817 3.237.075 2.764.199 9.711.199 13.671 0 3.959.449 16.459.473 17.555-3.037-.547-12.027-2.914-16.36-4.034-4.333-1.12-10.858-3.386-11.804-3.661-.075-4.805-.075-11.878-.2-16.36-.123-4.481.1-8.889.05-13.222zM113.877 93.391c1.643-2.34 4.034-5.652 4.78-6.922.747-1.27 4.085-6.375 4.483-6.848 0 3.163.199 8.069.199 13.273 0 5.204.374 12.599.398 13.571.025.971.075 3.536.05 4.458-1.394 1.893-3.013 4.383-4.233 6.002-1.221 1.618-4.656 6.424-5.08 6.897-.025-2.963-.05-6.549-.224-11.927-.174-5.38-.423-14.022-.373-18.504zM85.012 85.963c1.693-2.59 4.308-5.752 6.125-7.72 1.818-1.967 4.756-5.254 5.479-6.025 3.785.772 24.427 4.73 26.221 5.204-1.419 2.166-3.686 5.628-5.205 7.77-1.519 2.14-4.034 5.975-4.682 6.972-3.66-.722-11.553-2.391-15.015-3.213-3.46-.822-10.633-2.39-12.923-2.988zm20.95-7.069c-.051-1.4-2.559-2.349-5.375-2.17-2.817.177-4.687.875-4.847 2.803-.16 1.928 3.094 2.094 4.868 2.053 3.846-.09 5.406-1.286 5.354-2.686zM96.004 85.2c1.028.816 2.868 1.202 5.015 1.134 2.147-.07 3.952-.324 4.973-1.412.024-.524-.034-3.056-.03-3.691-.923.863-2.614 1.39-5.083 1.502-2.056.094-4.157-.27-5.096-1.03.06.987.102 2.379.221 3.497zM34.313 167.646c.025-2.416-.075-8.343-.075-12.924 0-4.581-.149-13.273-.074-14.891 2.49-.299 12.475-1.32 18.725-1.694 6.25-.373 12.277-.672 17.008-1.095 4.73-.424 9.163-.797 10.383-.896-.05 3.884-.2 9.836-.274 14.766-.075 4.93.05 9.687.05 11.156-3.038.498-14.044 2.042-21.265 2.963-7.221.921-19.174 2.092-24.478 2.615zM33.559 138.694c-2.31-1.823-4.904-3.902-7.29-5.494-2.388-1.592-6.906-4.467-7.65-5.185 3.901-.488 10.037-.873 19.15-1.515 9.114-.643 17.097-1.233 21.36-1.437 4.26-.205 10.011-.822 11.346-.822 1.617 1.926 3.312 3.953 4.544 5.289 1.232 1.335 4.287 4.595 4.98 5.442-3.105.257-9.446.796-14.658 1.156-5.211.359-12.528.796-18.201 1.232-5.673.436-9.833 1-13.581 1.334zM85.229 137.27c-1.26-.309-2.623-1.259-2.588-3.686.042-3.1 6.993-7.962 21.515-7.48 15.531.515 22.356 3.84 22.212 7.647-.057 1.492-1.3 2.716-2.438 3.159-.566 4.053-2.484 23.057-3.023 27.41-2.605 3.64-8.082 6.123-17.199 6.037-9.117-.085-13.79-3.028-16.867-7.631-.61-5.592-1.38-21.747-1.612-25.456zm18.628-.193c8.897.125 17.752-1.023 17.577-3.913-.175-2.891-7.388-3.669-17.179-3.845-9.792-.176-17.256 1.5-17.173 4.011.117 3.487 7.877 3.621 16.775 3.747zM127.855 108.593c2.128-1.606 9.685-5.501 10.544-6.024 3.242 4.081 10.336 13.98 11.531 15.922.037 4.706-.112 14.343-.187 22-.075 7.658.075 31.376.037 32.832-1.867-.859-8.777-5.005-11.99-6.948-3.213-1.943-8.852-5.714-10.085-6.499 0-5.976.187-16.584.224-25.436.038-8.852-.037-20.506-.074-25.847z" fill="#98C5D3"/>
    <path d="M139.695 101.721a44.517 44.517 0 01-.037-4.968c.075-1.643.747-2.615 2.466-3.4 1.718-.783 13.073-4.07 15.463-4.855 2.391-.784 4.071.112 3.996 2.166-.074 2.054-.074 2.914-.074 3.623 1.344 1.905 10.495 14.754 11.953 16.473.112 5.752.634 20.73.522 29.769-.112 9.039-.112 16.996-.074 19.759-2.765 1.718-6.948 4.669-10.16 6.387-3.212 1.717-10.234 5.714-12.251 6.686-.038-4.146 0-14.193 0-23.569 0-9.375-.075-19.795-.075-22.299 0-2.503-.112-7.545-.075-9.337-3.212-4.856-8.777-12.663-11.654-16.435zm24.801 2.044c.161-1.903-2.174-3.493-4.019-3.74-1.845-.246-4.325.601-4.767 2.401-.442 1.8 2.062 3.707 4.37 3.866 2.249.156 4.255-.625 4.416-2.527zm-10.669 3.522c.81 1.452 2.328 2.458 3.966 2.975 1.637.519 3.528.47 4.656-.51.254-.628.747-1.982 1.172-3.01-1.035.653-2.426.836-4.097.692-1.671-.144-3.673-1.187-4.63-3.181-.236.79-.807 2.177-1.067 3.034zM148.403 8.978c1.158 1.4 2.521 3.997 1.588 5.603-.934 1.605-2.69 1.12-3.38-.244-.692-1.363.224-3.903 1.792-5.359z" fill="#98C5D3"/>
    <path d="M12.617 40.25c-.12-6.221 4.76-9.033 9.086-8.303 4.326.73 5.165 4.22 5.138 12.549-.892.054-2.812-.217-3.137-.27.027-4.246.055-8.087-3.11-8.762-3.164-.676-4.666 3.516-4.597 5.355.162 4.38 1.79 6.413 5.03 8.545 5.219 3.435 7.652 8.33 7.328 14.684-.324 6.355-2.974 10.628-8.518 9.195-5.544-1.433-6.68-5.651-6.572-16.442 1.056.188 2.002.378 2.894.54-.054 7.627.676 11.684 4.056 12.494 3.38.811 4.814-2.163 4.868-6.599.053-4.435-1.73-7.626-5.625-10.222-3.894-2.597-6.707-5.707-6.841-12.765zM37.82 39.436c-.054-1.163-.026-3.353-.026-4.218 3.029-1.46 13.278-6.193 14.386-6.788-.054 1.298-.054 3.897-.026 4.546-1.137.46-3.597 1.92-4.868 2.57.055 5.867.352 10.733.406 17.493.054 6.761.352 17.037.378 18.01-.757.353-2.588 1.513-3.237 1.73-.026-2.975-.324-13.573-.486-20.037-.162-6.463-.48-14.395-.453-16.072-1.11.46-4.154 2.01-6.074 2.766zM68.56 46.247c.928.038 2.88.471 3.925.55.038 2.553.585 13.002.658 16.832.062 3.252 2.133 4.812 6.041 4.85 3.908.039 5.879-2.458 5.959-5.298.1-3.52.116-14.704.078-16.33.773-.193 2.919-.603 3.694-.797.038 3.21-.117 10.989-.194 16.91-.077 5.92-3.715 9.131-9.403 9.325-5.687.194-9.828-2.4-10.1-9.286-.233-5.886-.542-13.196-.658-16.756zM112.936 68.15c-1.163-.313-2.902-.894-3.663-1.163-.134-4.696.09-32.339.09-34.396 3.041.716 15.296 4.473 16.37 4.831 0 .984-.09 3.143-.09 3.723-1.789-.447-10.663-3.023-12.632-3.515-.179 2.192-.014 9.448-.059 10.746 1.834.536 5.848 1.75 6.562 1.928-.134 1.252-.134 3.018-.134 3.644-1.297-.313-5.551-1.542-6.402-1.766.047 2.416-.087 11.585-.042 15.968zM134.097 36.817c1.568-.971 10.196-4.893 11.13-5.267.037.896-.075 3.935-.075 4.458-1.382.672-6.188 2.89-7.234 3.488 0 2.016.15 8.85.112 9.634 1.419-.523 3.125-1.396 3.76-1.62 0 .858.112 3.349.075 4.209-.971.448-3.125 1.396-3.947 1.732.075 2.69.169 13.534.169 15.14-.71.523-3.253 1.787-3.813 2.049-.037-3.326-.14-29.565-.177-33.823zM40.472 86.226c1.1-.065 3.71.033 4.12.04.611 1.328 4.91 8.674 5.178 9.118 1.12-1.328 5.22-6.422 5.613-6.91.496-.075 1.51-.004 2.033.005.596.587 5.24 6.277 5.563 6.64.873-1.305 4.742-8.34 5.192-8.993.99-.038 3.24.108 3.818.144-1.017 1.715-6.345 11.713-6.993 12.72-.825.041-2.834.201-3.465.218-1.186-1.475-4.422-5.21-5.174-6.266-.729.868-4.267 5.536-4.742 6.05-.99.04-3.244.14-3.794.104-1.555-2.472-5.457-9.267-7.349-12.87zM89.156 92.47c2.863.622 7.744 1.668 10.956 2.44 3.213.772 8.068 1.867 8.591 1.992.025.922-.024 2.914 0 3.336-1.245-.274-6.119-1.602-8.833-2.15-2.714-.548-6.157-1.411-6.83-1.56 0 .97-.024 4.532.05 5.104 1.942.522 6.699 1.543 7.346 1.693.075 1.146.025 3.112.025 3.56-1.12-.174-6.748-1.519-7.197-1.643-.05 1.445-.05 5.205-.024 6.002 1.967.647 14.219 4.158 14.642 4.382.05.922-.051 3.113-.051 3.661-2.365-.547-17.755-5.18-18.725-5.503.024-3.585.099-19.397.05-21.314zM46.07 161.473c-.696.15-2.813.275-3.361.324-.025-2.042-.3-15.165-.374-17.905 1.22-.074 2.739 0 3.411 0 1.768 1.669 10.731 9.306 12.325 10.725 2.715-3.386 7.455-9.071 10.211-12.892 1.52-.274 3.336-.274 3.91-.274-.025 1.669.796 16.062.846 17.257-.821.199-2.839.398-3.386.423-.125-1.842-.648-10.98-.722-12.401-1.544 2.067-9.239 11.778-10.509 13.273-1.743-1.419-11.496-9.835-12.541-10.682.049 1.969.166 9.264.19 12.152zM93.268 162.81c1.801-3.859 9.047-19.507 9.904-21.008 1.115-.129 3.129-.042 4.201-.171 1.029 2.615 7.675 20.194 7.975 21.307-.858.515-2.491.768-3.391.768-.601-2.059-2.144-5.422-2.571-6.708-2.364.938-6.882 1.008-9.175.208-.858 1.886-2.343 5.729-2.815 6.672-1.116.26-3.314-.51-4.128-1.068zm15.006-8.8c-.257-.858-2.616-6.861-3.301-8.618-.515 1.2-3.001 6.787-3.858 8.931 1.5.471 6.087.288 7.159-.313zM131.048 156.684c.112-5.155.075-14.53.075-20.469 0-5.94.224-18.676.298-19.983 1.195.56 2.839 1.456 3.25 1.755-.112 3.175-.448 18.564-.485 19.46 3.063-4.408 9.674-15.389 10.346-16.136 1.045.112 2.353.784 3.474 1.12-1.867 3.175-9.487 16.286-10.197 17.294 1.158 3.436 9.002 24.503 9.338 25.623-1.344-.41-4.184-1.904-4.632-2.204-1.493-4.071-7.06-18.601-8.068-20.693-.037 3.81-.037 15.015-.037 16.173-1.607-.819-2.765-1.53-3.362-1.94zM154.921 164.753v-23.158c0-6.014.074-16.361.074-18.377 2.951-1.345 14.156-5.939 15.053-6.163.037 1.345.037 3.661 0 4.333-2.205.859-10.309 4.445-11.393 4.818-.075 3.175-.112 11.318-.112 12.103 1.568-.486 5.752-2.205 6.461-2.503.075 1.605.075 3.66.075 4.22-1.942.897-5.789 2.503-6.611 3.026.112 3.549-.037 13.783-.037 14.903 2.242-1.046 10.682-5.042 11.505-5.416.074 1.307.037 3.549-.075 4.483-2.502 1.605-11.692 6.199-14.94 7.731z" fill="#000"/>
    <path d="M32.944 151.311c.05-3.511-.05-7.993-.05-11.529-.997-.896-5.155-3.909-7.072-5.279-1.917-1.37-4.855-3.287-7.495-5.255-.174 1.52-.125 10.434-.15 13.422-.024 2.989.05 11.181.1 14.543 1.469 1.37 5.428 3.984 7.296 5.404 1.867 1.419 5.826 3.935 7.52 4.905.05-1.046-.198-12.699-.15-16.211zm-9.525 1.907c-1.107-.354-2.104-2.502-1.97-5.004.14-2.632.576-4.583 1.904-4.384.516.078.935.449 1.253 1.029-.985.295-1.622 1.677-1.592 3.54.028 1.803.63 3.605 1.583 4.132-.319.557-.722.833-1.178.687zm4.495.633c-.97.05-2.54.074-3.063.074.622-.771 1.296-3.311 1.296-5.104 0-1.792-.225-4.383-1.47-5.404.922-.05 2.216 0 2.963 0 1.195 1.221 1.718 2.888 1.718 5.279s-.572 4.383-1.444 5.155z" fill="#98C5D3"/>
</svg>
