<svg width="966" height="1080" viewBox="0 0 966 1080" fill="none" xmlns="http://www.w3.org/2000/svg">
<rect x="305.172" width="422.591" height="1080" fill="#98C5D3"/>
<path d="M0 1.16883L67.5048 68.739L0.093416 136.216L67.5048 203.692L0.093416 271.169L67.5048 338.645L0.093416 406.122L67.5048 473.599L0.58385 540.584L67.5048 607.57L0.093416 675.047L67.5048 742.523L0.093416 810L67.5048 877.477L0.093416 944.953L67.5048 1012.43L0 1080L342.136 1078.83V0L0 1.16883Z" fill="#98C5D3"/>
<path d="M966 1078.83L898.495 1011.26L965.907 943.784L898.495 876.308L965.907 808.831L898.495 741.355L965.907 673.878L898.495 606.401L965.416 539.416L898.495 472.43L965.907 404.953L898.495 337.477L965.907 270L898.495 202.523L965.907 135.047L898.495 67.5702L966 5.43594e-05L623.864 1.16886L623.864 1080L966 1078.83Z" fill="#98C5D3"/>
</svg>
