<svg width="1035" height="1024" viewBox="0 0 1035 1024" fill="none" xmlns="http://www.w3.org/2000/svg">
<path d="M949.964 257.032L922.856 235.809C898.105 215.765 876.89 189.826 863.925 161.529L841.532 115.546C808.53 43.6246 736.635 0 660.025 0H0V431.53C0 466.902 7.07169 502.273 23.5723 535.286L48.3232 585.985C54.2163 597.775 57.7522 610.745 57.7522 624.894V696.815C57.7522 795.855 126.112 881.925 222.758 904.327L288.761 919.655C304.083 923.192 319.405 930.266 331.191 940.877L371.264 972.712C456.124 1041.1 577.522 1041.1 662.382 972.712L700.098 942.056C714.241 930.266 730.742 923.192 748.421 918.476L865.104 892.537C931.106 878.388 977.072 819.436 977.072 752.23V622.535C977.072 610.745 979.43 600.134 984.144 589.522L1012.43 530.57C1058.4 435.067 1032.47 321.879 949.964 257.032Z" fill="black"/>
</svg>
